<?xml version="1.0" encoding="iso-8859-1"?>
<!-- Generator: Adobe Illustrator 19.0.0, SVG Export Plug-In . SVG Version: 6.00 Build 0)  -->
<svg version="1.1" id="Layer_1" xmlns="http://www.w3.org/2000/svg" xmlns:xlink="http://www.w3.org/1999/xlink" x="0px" y="0px"
	 viewBox="0 0 512.002 512.002" style="enable-background:new 0 0 512.002 512.002;" xml:space="preserve">
<rect x="7.869" y="55.9" style="fill:#FA9C1C;" width="104.055" height="400.208"/>
<polyline style="fill:#FBB049;" points="7.869,55.895 111.923,55.895 111.923,456.107 "/>
<rect x="352.052" y="55.9" style="fill:#FA9C1C;" width="152.085" height="400.208"/>
<polyline style="fill:#FBB049;" points="352.051,55.895 504.131,55.895 504.131,456.107 "/>
<rect x="384.072" y="102.922" style="fill:#FFFFFF;" width="120.065" height="305.166"/>
<g>
	<polygon style="fill:#7B7B53;" points="135.936,103.92 159.949,87.912 159.949,432.095 135.936,416.086 111.923,432.095 
		111.923,87.912 	"/>
	<rect x="384.072" y="143.944" style="fill:#7B7B53;" width="48.026" height="32.017"/>
	<rect x="384.072" y="239.994" style="fill:#7B7B53;" width="48.026" height="32.017"/>
	<rect x="384.072" y="336.043" style="fill:#7B7B53;" width="48.026" height="32.017"/>
</g>
<polygon style="fill:#5A5A28;" points="183.962,103.92 207.975,87.912 207.975,432.095 183.962,416.086 159.949,432.095 
	159.949,87.912 "/>
<polygon style="fill:#7B7B53;" points="231.987,103.92 255.999,87.912 255.999,432.095 231.987,416.086 207.975,432.095 
	207.975,87.912 "/>
<polygon style="fill:#5A5A28;" points="280.012,103.92 304.025,87.912 304.025,432.095 280.012,416.086 255.999,432.095 
	255.999,87.912 "/>
<polygon style="fill:#7B7B53;" points="328.038,103.92 352.051,87.912 352.051,432.095 328.038,416.086 304.025,432.095 
	304.025,87.912 "/>
<g>
	<rect x="72.035" y="127.934" style="fill:#FFFFFF;" width="15.737" height="16.009"/>
	<rect x="32.017" y="151.949" style="fill:#FFFFFF;" width="15.737" height="16.009"/>
	<rect x="32.017" y="199.969" style="fill:#FFFFFF;" width="15.737" height="16.009"/>
	<rect x="32.017" y="247.999" style="fill:#FFFFFF;" width="15.737" height="16.008"/>
	<rect x="32.017" y="296.018" style="fill:#FFFFFF;" width="15.737" height="16.009"/>
	<rect x="32.017" y="344.048" style="fill:#FFFFFF;" width="15.737" height="16.009"/>
	<rect x="72.035" y="175.964" style="fill:#FFFFFF;" width="15.737" height="16.009"/>
	<rect x="72.035" y="223.984" style="fill:#FFFFFF;" width="15.737" height="16.009"/>
	<rect x="72.035" y="272.014" style="fill:#FFFFFF;" width="15.737" height="16.009"/>
	<rect x="72.035" y="320.033" style="fill:#FFFFFF;" width="15.737" height="16.009"/>
	<rect x="72.035" y="368.063" style="fill:#FFFFFF;" width="15.737" height="16.009"/>
</g>
<path style="fill:#1D1D1B;" d="M344.182,48.027v35.674l-16.145,10.763l-16.144-10.763V63.899h-15.737v19.802l-16.144,10.763
	l-16.144-10.763V63.899H248.13v19.802l-16.142,10.763l-16.144-10.763V63.899h-15.737v19.802l-16.144,10.763l-16.144-10.763V63.899
	H152.08v19.802l-16.144,10.763l-16.144-10.763V48.027H0v415.948h119.792v-27.67l16.144-10.762l16.144,10.762v11.798h15.737v-11.798
	l16.144-10.762l16.144,10.762v11.798h15.737v-11.798l16.144-10.762l16.144,10.762v11.798h15.737v-11.798l16.144-10.762
	l16.144,10.762v11.798h15.737v-11.798l16.144-10.762l16.145,10.762v27.67h167.818V48.027H344.182z M104.055,448.238H15.737V63.764
	h88.317V448.238z M152.08,417.392l-16.144-10.762l-16.144,10.762V102.614l16.144,10.763l16.144-10.763V417.392z M200.106,417.392
	l-16.144-10.762l-16.144,10.762V102.615l16.144,10.763l16.144-10.763V417.392z M248.131,417.392l-16.143-10.762l-16.144,10.762
	V102.615l16.144,10.763l16.144-10.763v314.777H248.131z M296.157,417.392l-16.144-10.762l-16.144,10.762V102.615l16.144,10.763
	l16.144-10.763V417.392z M344.182,417.392l-16.145-10.762l-16.144,10.762V102.615l16.144,10.763l16.145-10.763L344.182,417.392
	L344.182,417.392z M496.263,400.213H391.937V375.93h48.025v-16.008h56.301V400.213z M391.937,360.191v-16.28h32.288v16.28H391.937z
	 M496.263,344.184h-56.301v-16.009h-48.025v-16.281h104.326V344.184z M496.263,296.158H391.937v-16.28h48.025v-16.009h56.301
	V296.158z M391.937,264.141V247.86h32.288v16.281H391.937z M496.263,248.133h-56.301v-16.009h-48.025v-16.28h104.326V248.133z
	 M496.263,200.107H391.937v-16.281h48.025v-16.009h56.301V200.107z M391.937,168.09v-16.28h32.288v16.28H391.937z M496.263,152.081
	h-56.301v-16.008h-48.025V111.79h104.326V152.081z M496.263,96.052H376.199v319.898h120.063v32.288H359.92V63.764h136.343
	L496.263,96.052L496.263,96.052z"/>
<g>
</g>
<g>
</g>
<g>
</g>
<g>
</g>
<g>
</g>
<g>
</g>
<g>
</g>
<g>
</g>
<g>
</g>
<g>
</g>
<g>
</g>
<g>
</g>
<g>
</g>
<g>
</g>
<g>
</g>
</svg>
