<?xml version="1.0" encoding="iso-8859-1"?>
<!-- Generator: Adobe Illustrator 19.0.0, SVG Export Plug-In . SVG Version: 6.00 Build 0)  -->
<svg version="1.1" id="Layer_1" xmlns="http://www.w3.org/2000/svg" xmlns:xlink="http://www.w3.org/1999/xlink" x="0px" y="0px"
	 viewBox="0 0 512 512" style="enable-background:new 0 0 512 512;" xml:space="preserve">
<g>
	<path style="fill:#FFFFFF;" d="M392.076,23.868c0,30.945-25.086,56.031-56.031,56.031s-56.031-25.086-56.031-56.031V7.86h112.064
		v16.009H392.076z"/>
	<path style="fill:#FFFFFF;" d="M232.421,23.868c0,30.945-25.086,56.031-56.031,56.031s-56.031-25.086-56.031-56.031V7.86h112.064
		v16.009H232.421z"/>
</g>
<rect x="119.927" y="7.86" style="fill:#FBB049;" width="112.069" height="32.018"/>
<rect x="280.014" y="7.86" style="fill:#FA9C1C;" width="112.069" height="32.018"/>
<path style="fill:#7B7B53;" d="M336.044,79.9v168.095l-80.046,24.013l-80.046-24.013V79.9c0,0,35.554,2.222,56.031-40.023
	l24.014,8.004l24.013-8.004C280.012,39.878,299.496,80.724,336.044,79.9z"/>
<path style="fill:#FA9C1C;" d="M175.953,247.995L175.953,247.995c-26.525,0-48.027,21.502-48.027,48.027V504.14h256.145V296.022
	c0-26.525-21.502-48.027-48.027-48.027l0,0l-80.046,24.013L175.953,247.995z"/>
<path style="fill:#FBB049;" d="M255.999,272.009l-80.046-24.013l0,0c-26.525,0-48.027,21.502-48.027,48.027v208.118h128.073V272.009
	z"/>
<polygon style="fill:#FFFFFF;" points="312.03,448.109 199.968,448.109 199.968,255.999 255.999,272.009 312.03,255.999 "/>
<rect x="199.971" y="416.094" style="fill:#5A5A28;" width="112.069" height="32.018"/>
<g>
	<rect x="111.921" style="fill:#1D1D1B;" width="128.072" height="15.719"/>
	<rect x="272.008" style="fill:#1D1D1B;" width="128.072" height="15.719"/>
	<rect x="151.943" y="32.018" style="fill:#1D1D1B;" width="48.027" height="15.719"/>
	<rect x="312.029" y="32.018" style="fill:#1D1D1B;" width="48.027" height="15.719"/>
	<rect x="215.973" y="88.05" style="fill:#1D1D1B;" width="16.009" height="15.719"/>
	<rect x="215.973" y="120.065" style="fill:#1D1D1B;" width="16.009" height="15.719"/>
	<rect x="215.973" y="152.08" style="fill:#1D1D1B;" width="16.009" height="15.719"/>
	<rect x="215.973" y="184.106" style="fill:#1D1D1B;" width="16.009" height="15.719"/>
	<rect x="215.973" y="216.121" style="fill:#1D1D1B;" width="16.009" height="15.719"/>
	<rect x="280.014" y="88.05" style="fill:#1D1D1B;" width="16.009" height="15.719"/>
	<rect x="280.014" y="120.065" style="fill:#1D1D1B;" width="16.009" height="15.719"/>
	<rect x="280.014" y="152.08" style="fill:#1D1D1B;" width="16.009" height="15.719"/>
	<rect x="280.014" y="184.106" style="fill:#1D1D1B;" width="16.009" height="15.719"/>
	<rect x="280.014" y="216.121" style="fill:#1D1D1B;" width="16.009" height="15.719"/>
</g>
<g>
	<rect x="239.992" y="88.05" style="fill:#FFFFFF;" width="32.018" height="15.719"/>
	<rect x="239.992" y="120.065" style="fill:#FFFFFF;" width="32.018" height="15.719"/>
	<rect x="239.992" y="152.08" style="fill:#FFFFFF;" width="32.018" height="15.719"/>
	<rect x="239.992" y="184.106" style="fill:#FFFFFF;" width="32.018" height="15.719"/>
	<rect x="239.992" y="216.121" style="fill:#FFFFFF;" width="32.018" height="15.719"/>
</g>
<g>
	<rect x="223.98" y="408.234" style="fill:#1D1D1B;" width="64.031" height="15.719"/>
	<rect x="167.945" y="472.264" style="fill:#1D1D1B;" width="16.009" height="15.719"/>
	<rect x="199.971" y="472.264" style="fill:#1D1D1B;" width="16.009" height="15.719"/>
	<rect x="231.986" y="472.264" style="fill:#1D1D1B;" width="16.009" height="15.719"/>
	<rect x="264.001" y="472.264" style="fill:#1D1D1B;" width="16.009" height="15.719"/>
	<rect x="296.027" y="472.264" style="fill:#1D1D1B;" width="16.009" height="15.719"/>
	<rect x="328.042" y="472.264" style="fill:#1D1D1B;" width="16.009" height="15.719"/>
	<path style="fill:#1D1D1B;" d="M343.904,240.699V87.259c31.533-3.888,56.032-30.823,56.032-63.39h-15.719
		c0,2.778-0.249,5.499-0.703,8.149h-15.451v15.719h9.798c-8.311,14.503-23.937,24.302-41.817,24.302
		c-17.88,0-33.504-9.799-41.816-24.302h9.797V32.017h-15.45c-0.454-2.651-0.703-5.371-0.703-8.149h-15.719
		c0,3.429,0.28,6.793,0.802,10.077l-16.956,5.652l-16.955-5.652c0.523-3.284,0.802-6.648,0.802-10.077h-15.719
		c0,2.778-0.249,5.499-0.703,8.149h-15.451v15.719h9.798c-8.311,14.503-23.937,24.302-41.817,24.302
		c-17.879,0-33.504-9.799-41.816-24.302h9.797V32.017h-15.45c-0.454-2.651-0.703-5.371-0.703-8.149h-15.719
		c0,32.566,24.498,59.502,56.031,63.39v153.441c-27.107,3.833-48.027,27.175-48.027,55.323V512h271.865V296.023
		C391.931,267.875,371.011,244.533,343.904,240.699z M234.662,49.055l13.477,4.492V79.9h15.719V53.547l13.478-4.492
		c8.802,20.437,27.971,35.383,50.848,38.205v154.889l-64.326,19.297v-21.455h-15.719v21.455l-64.326-19.297V87.26
		C206.69,84.439,225.861,69.493,234.662,49.055z M304.171,408.231h-8.149v15.719h8.149v16.299h-96.344V423.95h8.149v-15.719h-8.149
		V265.763l48.172,14.451l48.173-14.451V408.231z M376.212,472.267h-16.153v15.719h16.153v8.295H135.786v-8.295h16.154v-15.719
		h-16.154V296.023c0-21.792,17.446-39.573,39.105-40.14l17.217,5.165V455.97h127.783V261.049l17.216-5.164
		c21.657,0.567,39.105,18.349,39.105,40.14L376.212,472.267L376.212,472.267z"/>
</g>
<g>
</g>
<g>
</g>
<g>
</g>
<g>
</g>
<g>
</g>
<g>
</g>
<g>
</g>
<g>
</g>
<g>
</g>
<g>
</g>
<g>
</g>
<g>
</g>
<g>
</g>
<g>
</g>
<g>
</g>
</svg>
