<?xml version="1.0" encoding="iso-8859-1"?>
<!-- Generator: Adobe Illustrator 19.0.0, SVG Export Plug-In . SVG Version: 6.00 Build 0)  -->
<svg version="1.1" id="Layer_1" xmlns="http://www.w3.org/2000/svg" xmlns:xlink="http://www.w3.org/1999/xlink" x="0px" y="0px"
	 viewBox="0 0 512.002 512.002" style="enable-background:new 0 0 512.002 512.002;" xml:space="preserve">
<polyline style="fill:#FA9C1C;" points="55.917,59.462 95.859,139.344 135.8,59.462 "/>
<polyline style="fill:#5A5A28;" points="215.683,59.462 255.624,139.344 295.565,59.462 "/>
<polyline style="fill:#FBB049;" points="375.447,59.462 415.388,139.344 455.33,59.462 "/>
<polyline style="fill:#7B7B53;" points="55.917,211.238 95.859,291.12 135.8,211.238 "/>
<polyline style="fill:#FBB049;" points="215.683,211.238 255.624,291.12 295.565,211.238 "/>
<polyline style="fill:#5A5A28;" points="375.447,211.238 415.388,291.12 455.33,211.238 "/>
<polyline style="fill:#FBB049;" points="55.917,363.014 95.859,442.897 135.8,363.014 "/>
<polyline style="fill:#7B7B53;" points="215.683,363.014 255.624,442.897 295.565,363.014 "/>
<polyline style="fill:#FA9C1C;" points="375.447,363.014 415.388,442.897 455.33,363.014 "/>
<g>
	<path style="fill:#1D1D1B;" d="M51.85,67.264l44.763,89.526l44.763-89.526h69.52l45.481,89.526l44.763-89.526h70.239l44.763,89.526
		l44.763-89.526h51.095l-0.753-15.605H0l0.753,15.605H51.85z M96.613,121.897L69.296,67.264h54.634L96.613,121.897z
		 M255.624,121.897l-27.317-54.634h54.635L255.624,121.897z M416.142,121.897l-27.317-54.634h54.635L416.142,121.897z"/>
	<path style="fill:#1D1D1B;" d="M0.753,219.04H51.85l44.763,89.526l44.763-89.526h70.239l44.763,89.526l44.763-89.526h70.239
		l44.763,89.526l44.763-89.526h51.095v-15.605H0.753V219.04z M96.613,273.674l-27.317-54.634h54.634L96.613,273.674z
		 M256.377,273.674l-27.316-54.634h54.635L256.377,273.674z M416.142,273.674l-27.317-54.634h54.635L416.142,273.674z"/>
	<path style="fill:#1D1D1B;" d="M0.753,370.817H51.85l44.763,89.526l44.763-89.526h70.239l44.763,89.526l44.763-89.526h69.485
		l44.763,89.526l44.763-89.526h51.849v-15.605H0.753V370.817z M96.613,425.451l-27.317-54.635h54.634L96.613,425.451z
		 M256.377,425.451l-27.316-54.634h54.635L256.377,425.451z M415.388,425.451l-27.317-54.634h54.635L415.388,425.451z"/>
</g>
<g>
</g>
<g>
</g>
<g>
</g>
<g>
</g>
<g>
</g>
<g>
</g>
<g>
</g>
<g>
</g>
<g>
</g>
<g>
</g>
<g>
</g>
<g>
</g>
<g>
</g>
<g>
</g>
<g>
</g>
</svg>
