<?xml version="1.0" encoding="iso-8859-1"?>
<!-- Generator: Adobe Illustrator 19.0.0, SVG Export Plug-In . SVG Version: 6.00 Build 0)  -->
<svg version="1.1" id="Layer_1" xmlns="http://www.w3.org/2000/svg" xmlns:xlink="http://www.w3.org/1999/xlink" x="0px" y="0px"
	 viewBox="0 0 512 512" style="enable-background:new 0 0 512 512;" xml:space="preserve">
<polygon style="fill:#FBB049;" points="424.067,180.02 448.077,364.093 63.922,364.093 95.935,180.02 "/>
<polygon style="fill:#FA9C1C;" points="376.048,180.02 416.064,364.093 95.935,364.093 143.955,180.02 "/>
<polygon style="fill:#7B7B53;" points="448.077,364.093 63.922,364.093 71.926,332.08 440.074,332.08 "/>
<polygon style="fill:#5A5A28;" points="448.077,364.093 255.999,364.093 255.999,332.08 440.074,332.08 "/>
<path style="fill:#FBB049;" d="M466.286,452.128H45.714c-20.884,0-37.814-16.93-37.814-37.814v-50.222h496.2v50.222
	C504.1,435.199,487.17,452.128,466.286,452.128z"/>
<path style="fill:#FA9C1C;" d="M451.445,452.128H60.554c-2.56,0-4.635-2.075-4.635-4.635v-83.4H456.08v83.4
	C456.08,450.053,454.005,452.128,451.445,452.128z"/>
<path style="fill:#1D1D1B;" d="M455.013,356.192l-24.009-184.074H320.026v15.8h97.106l17.773,136.26H263.9v-40.12h-15.8v40.12
	H78.882l23.698-136.26h89.394v-15.8H89.291L57.278,356.192H0v60.618c0,23.831,19.387,43.219,43.219,43.219h425.563
	c23.831,0,43.219-19.387,43.219-43.219v-60.618H455.013z M76.135,339.981h360.829l2.115,16.212H73.315L76.135,339.981z
	 M496.199,416.81c0,15.119-12.3,27.418-27.418,27.418H43.219C28.1,444.229,15.8,431.929,15.8,416.81v-44.818h480.399V416.81z"/>
<polygon style="fill:#FFFFFF;" points="272.006,252.151 239.994,252.151 239.994,267.951 248.099,267.951 248.099,276.057 
	263.9,276.057 263.9,267.951 272.006,267.951 "/>
<g>
	<path style="fill:#5A5A28;" d="M311.919,243.942H200.08V132.001c0-13.296-10.817-24.114-24.113-24.114v-15.8
		c22.008,0,39.913,17.905,39.913,39.914v96.142h80.238v-96.142c0-22.009,17.905-39.914,39.913-39.914v15.8
		c-13.296,0-24.113,10.817-24.113,24.114V243.942z"/>
	<path style="fill:#5A5A28;" d="M287.909,220.036h-15.801V107.991c0-22.008,17.905-39.913,39.914-39.913v15.8
		c-13.296,0-24.114,10.817-24.114,24.113V220.036z"/>
	<path style="fill:#5A5A28;" d="M239.89,220.036h-15.8V107.991c0-13.296-10.816-24.113-24.113-24.113v-15.8
		c22.008,0,39.913,17.905,39.913,39.913V220.036z"/>
	<rect x="248.099" y="51.971" style="fill:#5A5A28;" width="15.8" height="168.064"/>
</g>
<g>
</g>
<g>
</g>
<g>
</g>
<g>
</g>
<g>
</g>
<g>
</g>
<g>
</g>
<g>
</g>
<g>
</g>
<g>
</g>
<g>
</g>
<g>
</g>
<g>
</g>
<g>
</g>
<g>
</g>
</svg>
