<?xml version="1.0" encoding="iso-8859-1"?>
<!-- Generator: Adobe Illustrator 19.0.0, SVG Export Plug-In . SVG Version: 6.00 Build 0)  -->
<svg version="1.1" id="Layer_1" xmlns="http://www.w3.org/2000/svg" xmlns:xlink="http://www.w3.org/1999/xlink" x="0px" y="0px"
	 viewBox="0 0 512 512" style="enable-background:new 0 0 512 512;" xml:space="preserve">
<path style="fill:#FA9C1C;" d="M47.595,199.708c0-35.53,28.803-64.333,64.333-64.333h289.499c35.53,0,64.333,28.803,64.333,64.333"
	/>
<path style="fill:#FBB049;" d="M47.595,199.708c0-35.53,20.494-64.333,45.776-64.333H299.36c25.281,0,45.775,28.803,45.775,64.333"
	/>
<path style="fill:#FA9C1C;" d="M47.595,312.292c0,35.53,28.803,64.333,64.333,64.333h289.499c35.53,0,64.333-28.803,64.333-64.333"
	/>
<path style="fill:#FBB049;" d="M345.135,312.292c0,35.53-20.494,64.333-45.775,64.333H93.371c-25.281,0-45.776-28.803-45.776-64.333
	"/>
<path style="fill:#5A5A28;" d="M295.7,320.333h148.876c32.889,0,59.55-28.708,59.55-61.597s-26.661-59.55-59.55-59.55H295.7"/>
<path style="fill:#7B7B53;" d="M315.55,320.333c32.889,0,59.55-28.708,59.55-61.597s-26.661-59.55-59.55-59.55H67.424
	c-32.889,0-59.55,26.661-59.55,59.55s26.661,61.597,59.55,61.597H315.55z"/>
<path style="fill:#1D1D1B;" d="M512,258.736c0-26.798-15.716-49.989-38.414-60.853c-0.975-38.972-32.958-70.381-72.159-70.381
	H111.928c-38.994,0-70.847,31.076-72.145,69.759C16.356,207.838,0,231.406,0,258.736c0,27.825,16.866,52.441,40.412,63.409
	c4.823,35.168,35.046,62.353,71.517,62.353h289.499c36.706,0,67.081-27.539,71.603-63.038C495.822,310.173,512,285.99,512,258.736z
	 M111.928,143.249h289.499c28.706,0,52.46,21.541,55.989,49.304c-4.159-0.805-8.45-1.241-12.841-1.241H67.424
	c-3.905,0-7.729,0.353-11.453,0.993C59.609,164.661,83.308,143.249,111.928,143.249z M401.427,368.751H111.928
	c-25.891,0-47.753-17.525-54.384-41.331c3.233,0.514,6.532,0.786,9.88,0.786h377.153c3.844,0,7.619-0.372,11.308-1.046
	C449.34,351.1,427.412,368.751,401.427,368.751z M444.576,312.46H67.424c-28.011,0-51.677-24.603-51.677-53.724
	c0-28.495,23.182-51.677,51.677-51.677h377.153c28.495,0,51.678,23.182,51.678,51.677
	C496.253,287.857,472.588,312.46,444.576,312.46z"/>
<path style="fill:#FFFFFF;" d="M425.552,296.04c-17.644,0-31.997-14.355-31.997-31.999V256c0-8.961-7.29-16.251-16.251-16.251
	s-16.252,7.29-16.252,16.251v8.041c0,17.644-14.355,31.999-31.997,31.999c-17.644,0-31.999-14.355-31.999-31.999V256
	c0-8.961-7.29-16.251-16.251-16.251s-16.252,7.29-16.252,16.251v8.041c0,17.644-14.355,31.999-31.999,31.999
	s-31.999-14.355-31.999-31.999V256c0-8.961-7.29-16.251-16.251-16.251s-16.252,7.29-16.252,16.251v8.041
	c0,17.644-14.354,31.999-31.997,31.999c-17.644,0-31.999-14.355-31.999-31.999V256c0-8.961-7.29-16.251-16.251-16.251
	S71.556,247.039,71.556,256H55.809c0-17.644,14.355-31.997,31.999-31.997s31.998,14.354,31.998,31.997v8.041
	c0,8.961,7.291,16.252,16.252,16.252s16.251-7.291,16.251-16.252V256c0-17.644,14.355-31.997,31.999-31.997
	s31.998,14.354,31.998,31.997v8.041c0,8.961,7.291,16.252,16.252,16.252c8.961,0,16.252-7.291,16.252-16.252V256
	c0-17.644,14.354-31.997,31.999-31.997c17.644,0,31.997,14.354,31.997,31.997v8.041c0,8.961,7.29,16.252,16.251,16.252
	s16.251-7.291,16.251-16.252V256c0-17.644,14.355-31.997,31.999-31.997S409.3,238.356,409.3,256v8.041
	c0,8.961,7.29,16.252,16.251,16.252s16.251-7.291,16.251-16.252h15.747C457.55,281.685,443.195,296.04,425.552,296.04z"/>
<g>
</g>
<g>
</g>
<g>
</g>
<g>
</g>
<g>
</g>
<g>
</g>
<g>
</g>
<g>
</g>
<g>
</g>
<g>
</g>
<g>
</g>
<g>
</g>
<g>
</g>
<g>
</g>
<g>
</g>
</svg>
