<?xml version="1.0" encoding="iso-8859-1"?>
<!-- Generator: Adobe Illustrator 19.0.0, SVG Export Plug-In . SVG Version: 6.00 Build 0)  -->
<svg version="1.1" id="Layer_1" xmlns="http://www.w3.org/2000/svg" xmlns:xlink="http://www.w3.org/1999/xlink" x="0px" y="0px"
	 viewBox="0 0 512 512" style="enable-background:new 0 0 512 512;" xml:space="preserve">
<polyline style="fill:#5A5A28;" points="98.675,142.303 59.344,126.571 59.344,95.106 256,8.578 452.656,95.106 452.656,126.571 
	413.325,142.303 "/>
<polygon style="fill:#7B7B53;" points="98.675,142.303 59.344,126.571 59.344,95.106 256,8.578 256,40.042 98.675,110.839 "/>
<polygon style="fill:#FFFFFF;" points="413.325,338.959 98.675,338.959 98.675,110.839 256,40.042 413.325,110.839 "/>
<rect x="145.87" y="126.569" style="fill:#FBB049;" width="220.25" height="94.393"/>
<polyline style="fill:#FA9C1C;" points="366.127,126.571 366.127,220.966 145.873,220.966 "/>
<rect x="169.473" y="150.172" style="fill:#FFFFFF;" width="173.054" height="47.196"/>
<rect x="35.745" y="338.958" style="fill:#FBB049;" width="440.51" height="165.193"/>
<polyline style="fill:#FA9C1C;" points="476.254,338.959 476.254,504.15 35.745,504.15 "/>
<g>
	<path style="fill:#1D1D1B;" d="M27.894,331.109V512h456.209V331.109H27.894z M269.485,346.809h182.273l-91.137,65.097
		L269.485,346.809z M347.115,421.554L256,486.636l-91.115-65.082L256,356.473L347.115,421.554z M151.379,411.907l-91.138-65.097
		h182.273L151.379,411.907z M137.873,421.554l-94.278,67.342V354.214L137.873,421.554z M151.379,431.202l91.138,65.098H60.241
		L151.379,431.202z M360.62,431.202l91.138,65.098H269.483L360.62,431.202z M374.126,421.554l94.277-67.34v134.682L374.126,421.554z
		"/>
	<rect x="35.755" y="276.029" style="fill:#1D1D1B;" width="15.701" height="47.196"/>
	<rect x="82.962" y="276.029" style="fill:#1D1D1B;" width="15.701" height="47.196"/>
	<rect x="130.159" y="276.029" style="fill:#1D1D1B;" width="15.701" height="47.196"/>
	<rect x="177.355" y="276.029" style="fill:#1D1D1B;" width="15.701" height="47.196"/>
	<rect x="224.551" y="276.029" style="fill:#1D1D1B;" width="15.701" height="47.196"/>
	<rect x="271.748" y="276.029" style="fill:#1D1D1B;" width="15.701" height="47.196"/>
	<rect x="318.944" y="276.029" style="fill:#1D1D1B;" width="15.701" height="47.196"/>
	<rect x="366.141" y="276.029" style="fill:#1D1D1B;" width="15.701" height="47.196"/>
	<rect x="413.337" y="276.029" style="fill:#1D1D1B;" width="15.701" height="47.196"/>
	<rect x="460.534" y="276.029" style="fill:#1D1D1B;" width="15.701" height="47.196"/>
</g>
<rect x="27.879" y="252.447" style="fill:#7B7B53;" width="456.243" height="15.701"/>
<g>
	<rect x="35.755" y="228.833" style="fill:#1D1D1B;" width="15.701" height="15.732"/>
	<rect x="460.534" y="228.833" style="fill:#1D1D1B;" width="15.701" height="15.732"/>
	<path style="fill:#1D1D1B;" d="M373.977,228.816H138.023V118.721h235.955V228.816z M153.723,213.116h204.553v-78.694H153.723
		V213.116z"/>
	<path style="fill:#1D1D1B;" d="M161.621,142.319v62.899h188.758v-62.899H161.621z M263.85,158.02h31.497v31.498H263.85
		L263.85,158.02L263.85,158.02z M248.15,189.517h-31.497V158.02h31.497V189.517z M177.322,158.02h23.631v31.498h-23.631V158.02z
		 M334.678,189.517h-23.631V158.02h23.631V189.517z"/>
	<path style="fill:#1D1D1B;" d="M460.506,89.984L256,0L51.494,89.984v41.902l39.331,15.732v96.946h15.701v-128.65l46.277-20.825
		h206.394l46.277,20.825v128.65h15.701v-96.946l39.331-15.732V89.984z M187.693,79.389l43.742-19.683l14.763,19.683H187.693z
		 M246.109,53.102L256,48.651l9.891,4.451L256,66.29L246.109,53.102z M265.801,79.389l14.763-19.683l43.741,19.683H265.801z
		 M444.806,121.256l-23.631,9.452v-24.945L256,31.433L90.824,105.762v24.945l-23.631-9.452v-21.027l188.806-83.074l188.806,83.074
		v21.027H444.806z"/>
</g>
<g>
</g>
<g>
</g>
<g>
</g>
<g>
</g>
<g>
</g>
<g>
</g>
<g>
</g>
<g>
</g>
<g>
</g>
<g>
</g>
<g>
</g>
<g>
</g>
<g>
</g>
<g>
</g>
<g>
</g>
</svg>
