<?xml version="1.0" encoding="iso-8859-1"?>
<!-- Generator: Adobe Illustrator 19.0.0, SVG Export Plug-In . SVG Version: 6.00 Build 0)  -->
<svg version="1.1" id="Layer_1" xmlns="http://www.w3.org/2000/svg" xmlns:xlink="http://www.w3.org/1999/xlink" x="0px" y="0px"
	 viewBox="0 0 512 512" style="enable-background:new 0 0 512 512;" xml:space="preserve">
<rect x="239.954" y="368.06" style="fill:#7B7B53;" width="31.995" height="63.99"/>
<rect x="415.929" y="368.06" style="fill:#5A5A28;" width="31.995" height="63.99"/>
<path style="fill:#7B7B53;" d="M423.765,424.216h16.324v-48.319h-16.324V424.216z"/>
<rect x="23.995" y="432.05" style="fill:#FA9C1C;" width="463.924" height="63.99"/>
<polyline style="fill:#FBB049;" points="23.995,496.041 23.995,432.052 487.917,432.052 "/>
<rect x="159.97" y="248.082" style="fill:#FA9C1C;" width="191.97" height="47.992"/>
<polyline style="fill:#FBB049;" points="159.973,296.074 159.973,248.082 351.939,248.082 "/>
<g>
	<rect x="439.927" y="456.214" style="fill:#1D1D1B;" width="15.998" height="15.671"/>
	<rect x="407.927" y="456.214" style="fill:#1D1D1B;" width="15.998" height="15.671"/>
	<rect x="375.937" y="456.214" style="fill:#1D1D1B;" width="15.997" height="15.671"/>
	<rect x="343.937" y="456.214" style="fill:#1D1D1B;" width="15.997" height="15.671"/>
	<rect x="311.947" y="456.214" style="fill:#1D1D1B;" width="15.998" height="15.671"/>
	<rect x="279.947" y="456.214" style="fill:#1D1D1B;" width="15.998" height="15.671"/>
	<rect x="247.957" y="456.214" style="fill:#1D1D1B;" width="15.998" height="15.671"/>
	<rect x="215.967" y="456.214" style="fill:#1D1D1B;" width="15.998" height="15.671"/>
	<rect x="183.967" y="456.214" style="fill:#1D1D1B;" width="15.998" height="15.671"/>
	<rect x="151.977" y="456.214" style="fill:#1D1D1B;" width="15.997" height="15.671"/>
	<rect x="119.977" y="456.214" style="fill:#1D1D1B;" width="15.997" height="15.671"/>
	<rect x="87.987" y="456.214" style="fill:#1D1D1B;" width="15.998" height="15.671"/>
	<rect x="55.99" y="456.214" style="fill:#1D1D1B;" width="15.998" height="15.671"/>
	<path style="fill:#1D1D1B;" d="M71.824,424.216h16.324v-48.319H71.824V424.216z"/>
</g>
<rect x="63.99" y="368.06" style="fill:#5A5A28;" width="31.995" height="63.99"/>
<g>
	<rect x="72.149" y="320.075" style="fill:#FBB049;" width="15.671" height="23.996"/>
	<rect x="248.124" y="320.075" style="fill:#FBB049;" width="15.671" height="23.996"/>
	<rect x="424.089" y="320.075" style="fill:#FBB049;" width="15.671" height="23.996"/>
</g>
<path style="fill:#7B7B53;" d="M303.949,248.09c-17.671,0-31.995-14.324-31.995-31.995c0-9.559,4.193-18.141,10.839-24.003
	l-53.674-0.007c6.647,5.863,10.84,14.443,10.84,24.003c0,17.67-14.324,31.995-31.995,31.995L303.949,248.09z"/>
<g>
	<rect x="183.967" y="264.244" style="fill:#1D1D1B;" width="15.998" height="15.671"/>
	<rect x="215.967" y="264.244" style="fill:#1D1D1B;" width="15.998" height="15.671"/>
	<rect x="247.957" y="264.244" style="fill:#1D1D1B;" width="15.998" height="15.671"/>
	<rect x="279.947" y="264.244" style="fill:#1D1D1B;" width="15.998" height="15.671"/>
	<rect x="311.947" y="264.244" style="fill:#1D1D1B;" width="15.998" height="15.671"/>
	<rect x="248.124" y="136.097" style="fill:#1D1D1B;" width="15.671" height="23.996"/>
	<rect x="248.124" y="104.108" style="fill:#1D1D1B;" width="15.671" height="23.996"/>
	<rect x="248.124" y="72.118" style="fill:#1D1D1B;" width="15.671" height="23.996"/>
	<rect x="248.124" y="40.118" style="fill:#1D1D1B;" width="15.671" height="23.995"/>
	<rect x="248.124" y="8.124" style="fill:#1D1D1B;" width="15.671" height="23.996"/>
	
		<rect x="145.822" y="322.005" transform="matrix(0.8619 0.507 -0.507 0.8619 190.5609 -31.793)" style="fill:#1D1D1B;" width="15.67" height="23.994"/>
	
		<rect x="129.628" y="349.557" transform="matrix(-0.8619 -0.507 0.507 -0.8619 72.6318 742.8859)" style="fill:#1D1D1B;" width="15.67" height="23.994"/>
	
		<rect x="113.403" y="377.135" transform="matrix(-0.8619 -0.507 0.507 -0.8619 28.4395 786.0085)" style="fill:#1D1D1B;" width="15.67" height="23.994"/>
	
		<rect x="200.882" y="358.488" transform="matrix(-0.3807 -0.9247 0.9247 -0.3807 -44.8164 702.6328)" style="fill:#1D1D1B;" width="23.995" height="15.671"/>
	
		<rect x="188.733" y="328.936" transform="matrix(0.3807 0.9247 -0.9247 0.3807 435.7253 22.9474)" style="fill:#1D1D1B;" width="23.995" height="15.671"/>
	
		<rect x="303.378" y="324.753" transform="matrix(-0.9247 -0.3807 0.3807 -0.9247 470.7915 766.622)" style="fill:#1D1D1B;" width="15.671" height="23.995"/>
	
		<rect x="291.193" y="354.338" transform="matrix(-0.9247 -0.3807 0.3807 -0.9247 436.0756 818.926)" style="fill:#1D1D1B;" width="15.671" height="23.995"/>
	<path style="fill:#1D1D1B;" d="M511.824,455.942l-16.072,0.18v-31.905h-39.993v-63.99h-15.998v-8.161H424.09v8.161h-15.996v43.051
		l-0.51-0.867l-13.507,7.945l8.153,13.86H283.654l2.808-6.82l-6.673-2.748v-8.649l9.718,4.001l9.136-22.188l-14.49-5.966
		l-4.364,10.599v-32.218h-15.997v-8.161h-15.671v8.161h-15.998v32.218l-4.364-10.599l-14.49,5.966l9.136,22.188l9.718-4.001v8.649
		l-6.673,2.748l2.808,6.82H109.682l8.153-13.86l-13.507-7.945l-0.51,0.867v-43.051H87.821v-8.161H72.15v8.161H56.153v63.99H16.16
		v31.994H0v15.671h16.16v31.995h479.592v-32.082L512,471.613L511.824,455.942z M423.765,375.897h16.324v48.319h-16.324V375.897z
		 M247.794,375.897h16.324v48.319h-16.324V375.897z M71.824,375.897h16.324v48.319H71.824V375.897z M480.081,488.205H31.831v-48.318
		h24.322h47.666h128.304h47.666h128.305h47.666h24.322v48.318H480.081z"/>
	
		<rect x="382.879" y="377.139" transform="matrix(0.8619 -0.507 0.507 0.8619 -143.3555 251.8264)" style="fill:#1D1D1B;" width="15.67" height="23.994"/>
	<path style="fill:#1D1D1B;" d="M152.137,303.91h10.133l-5.221,8.874l13.507,7.945l8.877-15.09l6.426,15.606l14.49-5.966
		l-4.681-11.37h120.575l-4.681,11.37l14.49,5.966l6.426-15.606l8.877,15.09l13.507-7.945l-5.221-8.874h10.133v-23.995h16.16v-15.671
		h-16.16v-23.997h-56.108c-13.192-0.153-23.877-10.925-23.877-24.151c0-6,2.239-11.752,6.214-16.168h9.946v-15.671h-32.158v-16.161
		h-15.671v16.161h-32.158v15.671h9.952c3.971,4.414,6.208,10.164,6.208,16.16c0,13.321-10.837,24.159-24.158,24.159h-55.827v23.996
		h-16.16v15.671h16.16L152.137,303.91L152.137,303.91z M244.36,199.929h23.196c-2.238,5.037-3.437,10.536-3.437,16.168
		c0,9.076,3.057,17.446,8.188,24.151h-32.704c5.134-6.706,8.193-15.081,8.193-24.159C247.794,210.46,246.596,204.963,244.36,199.929
		z M167.808,255.918h135.858c0.094,0.001,0.187,0.007,0.282,0.007v-0.007h40.156v32.321H167.808V255.918z"/>
	
		<rect x="346.24" y="326.185" transform="matrix(0.507 0.8619 -0.8619 0.507 464.5075 -144.1119)" style="fill:#1D1D1B;" width="23.994" height="15.67"/>
	
		<rect x="362.476" y="353.756" transform="matrix(0.507 0.8619 -0.8619 0.507 496.2752 -144.5143)" style="fill:#1D1D1B;" width="23.994" height="15.67"/>
</g>
<g>
</g>
<g>
</g>
<g>
</g>
<g>
</g>
<g>
</g>
<g>
</g>
<g>
</g>
<g>
</g>
<g>
</g>
<g>
</g>
<g>
</g>
<g>
</g>
<g>
</g>
<g>
</g>
<g>
</g>
</svg>
