<?xml version="1.0" encoding="iso-8859-1"?>
<!-- Generator: Adobe Illustrator 19.0.0, SVG Export Plug-In . SVG Version: 6.00 Build 0)  -->
<svg version="1.1" id="Layer_1" xmlns="http://www.w3.org/2000/svg" xmlns:xlink="http://www.w3.org/1999/xlink" x="0px" y="0px"
	 viewBox="0 0 512 512" style="enable-background:new 0 0 512 512;" xml:space="preserve">
<rect x="198.324" y="277.838" transform="matrix(-0.7071 -0.7071 0.7071 -0.7071 174.4371 651.8208)" style="fill:#FBB049;" width="47.781" height="23.89"/>
<rect x="83.369" y="281.309" transform="matrix(-0.7071 -0.7071 0.7071 -0.7071 -83.8694 758.8206)" style="fill:#FA9C1C;" width="63.707" height="230.942"/>
<path style="fill:#7B7B53;" d="M354.544,11.049l-84.466,84.467c-40.43,40.43-40.43,105.979,0,146.407
	c40.43,40.429,105.979,40.43,146.407,0l84.466-84.466L354.544,11.049z M393.962,219.398c-27.989,27.989-73.37,27.989-101.359,0
	c-27.99-27.989-27.989-73.37,0-101.359l61.942-61.942l28.155,28.156l-28.155,28.156c-12.439,12.439-12.44,32.609,0,45.048
	c12.44,12.44,32.609,12.439,45.048,0l28.155-28.156l28.156,28.156L393.962,219.398z"/>
<path style="fill:#5A5A28;" d="M427.749,84.253l-73.204,73.204c12.44,12.44,32.609,12.439,45.048,0l28.155-28.156l28.156,28.156
	l-61.942,61.942c-27.989,27.989-73.37,27.989-101.359,0l-22.525,22.525c40.43,40.43,105.979,40.43,146.407,0l84.466-84.466
	L427.749,84.253z"/>
<g>
	<path style="fill:#1D1D1B;" d="M343.282,248.203c-21.231,0-41.191-8.269-56.203-23.282c-15.013-15.011-23.281-34.971-23.281-56.203
		c0-21.231,8.268-41.191,23.281-56.203l67.466-67.466l39.204,39.204l-33.68,33.68c-4.541,4.541-7.042,10.578-7.042,16.999
		c0,6.422,2.5,12.459,7.042,17c9.374,9.375,24.627,9.375,34.001,0l33.68-33.679l39.204,39.204l-67.466,67.467
		C384.473,239.935,364.513,248.203,343.282,248.203z M354.544,67.146l-56.418,56.418c-12.061,12.061-18.704,28.098-18.704,45.155
		c0,17.058,6.643,33.094,18.704,45.156c12.061,12.062,28.099,18.705,45.156,18.705s33.094-6.643,45.156-18.704l56.418-56.418
		l-17.107-17.107l-22.632,22.632c-15.466,15.466-40.631,15.464-56.097,0c-15.466-15.466-15.466-40.632,0-56.097l22.631-22.631
		L354.544,67.146z"/>
	
		<rect x="165.99" y="290.424" transform="matrix(-0.7071 -0.7071 0.7071 -0.7071 154.0427 660.2791)" style="fill:#1D1D1B;" width="95.56" height="15.625"/>
	<path style="fill:#1D1D1B;" d="M56.098,512L0.001,455.903l174.35-174.349l56.097,56.097L56.098,512z M22.097,455.903l34.001,34.002
		l152.253-152.253l-34.001-34.001L22.097,455.903z"/>
</g>
<g>
	
		<rect x="48.299" y="447.944" transform="matrix(-0.7071 -0.7071 0.7071 -0.7071 -226.5869 817.9594)" style="fill:#FFFFFF;" width="15.625" height="15.927"/>
	
		<rect x="70.838" y="425.422" transform="matrix(-0.7071 -0.7071 0.7071 -0.7071 -172.1849 795.4495)" style="fill:#FFFFFF;" width="15.625" height="15.927"/>
	
		<rect x="93.355" y="402.897" transform="matrix(-0.7071 -0.7071 0.7071 -0.7071 -117.8186 772.9182)" style="fill:#FFFFFF;" width="15.625" height="15.927"/>
</g>
<path style="fill:#1D1D1B;" d="M354.544,0l-89.99,89.99c-21.029,21.029-32.611,48.989-32.611,78.729
	c0,27.119,9.635,52.757,27.279,73.01l-28.561,28.561l-11.37-11.37l-11.049,11.05l33.787,33.786l11.048-11.049l-11.369-11.369
	l28.562-28.562c20.254,17.643,45.89,27.279,73.01,27.279c29.74,0,57.699-11.581,78.728-32.61L512,157.455L354.544,0z
	 M410.962,236.398c-37.319,37.32-98.041,37.32-135.36,0c-18.078-18.077-28.034-42.114-28.034-67.679
	c0-25.566,9.956-49.602,28.034-67.68l78.942-78.943l135.36,135.361L410.962,236.398z"/>
<g>
</g>
<g>
</g>
<g>
</g>
<g>
</g>
<g>
</g>
<g>
</g>
<g>
</g>
<g>
</g>
<g>
</g>
<g>
</g>
<g>
</g>
<g>
</g>
<g>
</g>
<g>
</g>
<g>
</g>
</svg>
