<?xml version="1.0" encoding="iso-8859-1"?>
<!-- Generator: Adobe Illustrator 19.0.0, SVG Export Plug-In . SVG Version: 6.00 Build 0)  -->
<svg version="1.1" id="Layer_1" xmlns="http://www.w3.org/2000/svg" xmlns:xlink="http://www.w3.org/1999/xlink" x="0px" y="0px"
	 viewBox="0 0 512.001 512.001" style="enable-background:new 0 0 512.001 512.001;" xml:space="preserve">
<rect x="159.935" y="95.883" style="fill:#FFFFFF;" width="192.132" height="64.041"/>
<path style="fill:#FA9C1C;" d="M159.933,255.998c0,8.843,7.169,16.012,16.012,16.012l0,0c8.843,0,16.012,7.169,16.012,16.012
	l-0.002,216.153h128.09l-0.001-216.153c0-8.843,7.169-16.012,16.012-16.012c8.843,0,16.012-7.169,16.012-16.012v-96.067H159.933
	V255.998z"/>
<path style="fill:#FBB049;" d="M159.933,159.931v96.067c0,8.843,7.169,16.012,16.012,16.012l0,0c8.843,0,16.012,7.169,16.012,16.012
	l-0.002,216.153H256V159.931H159.933z"/>
<g>
	<rect x="207.971" y="208.147" style="fill:#1D1D1B;" width="96.071" height="15.65"/>
	<rect x="223.976" y="232.165" style="fill:#1D1D1B;" width="16.012" height="15.65"/>
	<rect x="247.993" y="232.165" style="fill:#1D1D1B;" width="16.011" height="15.65"/>
	<rect x="272.011" y="232.165" style="fill:#1D1D1B;" width="16.012" height="15.65"/>
	<rect x="215.973" y="464.331" style="fill:#1D1D1B;" width="80.056" height="15.65"/>
	<path style="fill:#1D1D1B;" d="M391.916,71.87c0-35.215-28.649-63.864-63.864-63.864c-10.656,0-21.001,2.618-30.267,7.616
		C286.178,5.504,271.564,0,256.001,0c-13.095,0-25.918,4.067-36.597,11.534c-6.247-2.343-12.765-3.529-19.442-3.529
		c-30.178,0-54.842,24.055-55.829,53.996c-15.132,12.086-24.047,30.434-24.047,49.897c0,23.623,12.903,44.278,32.022,55.324v88.776
		c0,13.144,10.693,23.837,23.838,23.837c4.515,0,8.187,3.673,8.187,8.187l-0.002,223.977h143.742l-0.002-223.977
		c0-4.515,3.673-8.187,8.187-8.187c13.145,0,23.838-10.693,23.838-23.837V127.194C379.013,116.147,391.916,95.493,391.916,71.87z
		 M344.244,152.106H312.04v15.65h32.204v88.242c0,4.515-3.674,8.187-8.188,8.187c-13.144,0-23.837,10.693-23.837,23.837
		l0.002,208.327H199.78l0.002-208.327c0-13.144-10.693-23.837-23.837-23.837c-4.515,0-8.188-3.673-8.188-8.187v-82.321
		c5.174,1.357,10.599,2.086,16.193,2.086c11.278,0,21.893-2.892,31.109-8.007h80.97v-15.65h-62.368
		c5.826-7.213,10.126-15.746,12.375-25.161c3.294,0.522,6.624,0.785,9.965,0.785c10.657,0,21.003-2.617,30.267-7.615
		c11.606,10.117,26.221,15.621,41.784,15.621c5.593,0,11.019-0.728,16.193-2.086v18.457H344.244z M328.051,120.085
		c-13.349,0-25.782-5.377-35.01-15.142l-4.566-4.831l-5.506,3.724c-7.973,5.393-17.3,8.243-26.969,8.243
		c-4.742,0-9.458-0.702-14.02-2.087l-9.122-2.769l-0.938,9.486c-2.448,24.744-23.069,43.403-47.97,43.403
		c-26.584,0-48.214-21.629-48.214-48.214c0-15.766,7.76-30.57,20.758-39.602l3.537-2.457l-0.184-4.302
		c-0.014-0.322-0.034-0.642-0.056-0.961c-0.017-0.236-0.039-0.472-0.039-0.712c0-22.171,18.037-40.209,40.209-40.209
		c5.944,0,11.73,1.317,17.196,3.913l4.48,2.127l3.836-3.143c8.583-7.031,19.424-10.903,30.526-10.903
		c13.349,0,25.782,5.377,35.011,15.142l4.566,4.831l5.505-3.723c7.976-5.393,17.302-8.245,26.97-8.245
		c26.584,0,48.214,21.629,48.214,48.214C376.265,98.455,354.637,120.085,328.051,120.085z"/>
	<path style="fill:#1D1D1B;" d="M183.95,143.741c-17.557,0-31.843-14.284-31.843-31.843h15.65c0,8.929,7.264,16.193,16.193,16.193
		V143.741z"/>
</g>
<g>
</g>
<g>
</g>
<g>
</g>
<g>
</g>
<g>
</g>
<g>
</g>
<g>
</g>
<g>
</g>
<g>
</g>
<g>
</g>
<g>
</g>
<g>
</g>
<g>
</g>
<g>
</g>
<g>
</g>
</svg>
