<?xml version="1.0" encoding="iso-8859-1"?>
<!-- Generator: Adobe Illustrator 19.0.0, SVG Export Plug-In . SVG Version: 6.00 Build 0)  -->
<svg version="1.1" id="Layer_1" xmlns="http://www.w3.org/2000/svg" xmlns:xlink="http://www.w3.org/1999/xlink" x="0px" y="0px"
	 viewBox="0 0 511.999 511.999" style="enable-background:new 0 0 511.999 511.999;" xml:space="preserve">
<polyline style="fill:#FBB049;" points="124.176,100.913 124.176,449.859 116.421,473.121 364.561,473.121 356.806,449.859 
	356.806,100.913 349.052,100.913 "/>
<g>
	<circle style="fill:#FFFFFF;" cx="290.896" cy="228.86" r="11.634"/>
	<rect x="124.177" y="100.91" style="fill:#FFFFFF;" width="232.633" height="46.524"/>
</g>
<polyline style="fill:#FA9C1C;" points="116.421,473.121 93.158,473.121 93.158,504.139 387.824,504.139 387.824,473.121 
	364.561,473.121 "/>
<path style="fill:#FFFFFF;" d="M287.017,15.615c-4.747,0-9.351,0.582-13.792,1.592c-6.762-5.748-15.409-9.347-24.98-9.347
	c-14.674,0-27.29,8.248-33.874,20.271c-6.168-3.021-13.076-4.762-20.406-4.762c-13.915,0-26.369,6.141-34.895,15.823
	c-8.526-9.682-20.98-15.823-34.895-15.823c-25.696,0-46.527,20.831-46.527,46.527v85.297c0,12.847,10.415,23.263,23.263,23.263
	s23.263-10.415,23.263-23.263v-54.28h35.18c8.518,9.498,20.846,15.509,34.609,15.509c14.152,0,26.719-6.412,35.249-16.383
	c8.987,23.182,31.447,39.645,57.803,39.645c34.261,0,62.035-27.774,62.035-62.035S321.278,15.615,287.017,15.615z"/>
<g>
	<polygon style="fill:#1D1D1B;" points="442.21,349.159 380.069,349.159 380.069,333.438 426.489,333.438 426.489,147.545 
		380.069,147.545 380.069,131.824 442.21,131.824 	"/>
	<rect x="170.702" y="434.243" style="fill:#1D1D1B;" width="139.584" height="15.721"/>
</g>
<g>
	<circle style="fill:#FFFFFF;" cx="186.213" cy="287.018" r="15.509"/>
	<circle style="fill:#FFFFFF;" cx="224.982" cy="333.543" r="15.509"/>
</g>
<g>
	<path style="fill:#1D1D1B;" d="M186.211,310.387c-12.886,0-23.37-10.484-23.37-23.369s10.484-23.369,23.37-23.369
		c12.886,0,23.369,10.484,23.369,23.369C209.579,299.903,199.096,310.387,186.211,310.387z M186.211,279.369
		c-4.219,0-7.649,3.43-7.649,7.648c0,4.217,3.43,7.648,7.649,7.648c4.216,0,7.648-3.43,7.648-7.648
		C193.858,282.801,190.428,279.369,186.211,279.369z"/>
	<path style="fill:#1D1D1B;" d="M224.982,356.913c-12.886,0-23.369-10.484-23.369-23.369s10.483-23.369,23.369-23.369
		c12.886,0,23.37,10.484,23.37,23.369C248.352,346.43,237.868,356.913,224.982,356.913z M224.982,325.896
		c-4.216,0-7.648,3.43-7.648,7.648s3.43,7.648,7.648,7.648c4.219,0,7.649-3.43,7.649-7.648
		C232.631,329.326,229.199,325.896,224.982,325.896z"/>
	<path style="fill:#1D1D1B;" d="M290.894,248.352c-10.748,0-19.492-8.744-19.492-19.492c0-10.748,8.744-19.492,19.492-19.492
		s19.492,8.744,19.492,19.492C310.386,239.608,301.642,248.352,290.894,248.352z M290.894,225.089c-2.078,0-3.771,1.692-3.771,3.771
		c0,2.079,1.692,3.771,3.771,3.771s3.771-1.692,3.771-3.771C294.665,226.78,292.973,225.089,290.894,225.089z"/>
</g>
<g>
	<rect x="170.702" y="325.682" style="fill:#FFFFFF;" width="15.51" height="15.721"/>
	<rect x="287.018" y="379.962" style="fill:#FFFFFF;" width="15.509" height="15.721"/>
</g>
<path style="fill:#1D1D1B;" d="M370.226,465.261l-5.559-16.678V93.052h-9.485c1.12-4.96,1.731-10.11,1.731-15.403
	c0-38.54-31.355-69.896-69.896-69.896c-3.878,0-7.834,0.348-11.802,1.039C267.279,3.099,257.84,0,248.245,0
	c-14.551,0-28.141,6.901-36.894,18.389c-5.603-1.913-11.425-2.88-17.387-2.88c-12.82,0-25.16,4.564-34.895,12.729
	c-9.734-8.165-22.074-12.729-34.894-12.729c-29.989,0-54.387,24.397-54.387,54.387v85.297c0,17.161,13.962,31.124,31.123,31.124
	c5.602,0,10.857-1.495,15.403-4.096v266.361l-5.56,16.678H85.296v46.738h310.386v-46.738H370.226z M348.945,449.965v1.17
	l4.709,14.126H127.328l4.709-14.126v-1.17h23.156v-15.721h-23.156V155.3h131.717v-11.69c4.955,1.735,10.154,2.911,15.51,3.497v8.192
	h23.262V145.8c5.436-1.238,10.633-3.109,15.508-5.536v15.035h15.51v-15.721h-14.159c12.601-6.619,22.948-16.971,29.56-29.578
	v324.243h-23.156v15.721h23.156V449.965z M132.037,139.579v-30.805h23.972c10.136,9.897,23.776,15.509,37.956,15.509
	c11.941,0,23.444-3.987,32.84-11.186c6.668,11.417,16.285,20.51,27.667,26.483H132.037z M100.913,170.596
	c-8.493,0-15.402-6.909-15.402-15.403V69.896c0-21.32,17.346-38.666,38.666-38.666c11.064,0,21.631,4.796,28.994,13.158l5.9,6.699
	l5.9-6.699c7.363-8.362,17.931-13.158,28.995-13.158c5.878,0,11.581,1.332,16.95,3.961l6.744,3.303l3.606-6.586
	c5.467-9.984,15.805-16.186,26.979-16.186c7.257,0,14.134,2.586,19.891,7.476l2.998,2.547l3.835-0.872
	c4.074-0.927,8.127-1.396,12.049-1.396c29.871,0,54.174,24.303,54.174,54.174s-24.303,54.174-54.174,54.174
	c-22.508,0-42.32-13.592-50.474-34.627l-4.754-12.262l-8.548,9.992c-7.411,8.663-18.082,13.631-29.276,13.631
	c-10.925,0-21.406-4.701-28.756-12.897l-2.342-2.613h-46.551v7.861v54.28C116.315,163.687,109.405,170.596,100.913,170.596z
	 M379.963,496.279H101.019v-15.296h278.944v15.296H379.963z"/>
<g>
	<rect x="147.329" y="178.457" style="fill:#FFFFFF;" width="15.721" height="54.28"/>
	<rect x="178.353" y="217.226" style="fill:#FFFFFF;" width="15.721" height="31.017"/>
	<rect x="232.738" y="178.353" style="fill:#FFFFFF;" width="15.509" height="15.721"/>
	<rect x="147.434" y="395.474" style="fill:#FFFFFF;" width="15.509" height="15.721"/>
	<rect x="310.17" y="294.774" style="fill:#FFFFFF;" width="15.721" height="46.525"/>
</g>
<g>
	<rect x="372.206" y="116.421" style="fill:#5A5A28;" width="15.721" height="46.524"/>
	<rect x="372.206" y="318.031" style="fill:#5A5A28;" width="15.721" height="46.525"/>
</g>
<path style="fill:#1D1D1B;" d="M325.895,77.649h-15.721c0-12.769-10.388-23.156-23.156-23.156V38.772
	C308.453,38.772,325.895,56.213,325.895,77.649z"/>
<g>
</g>
<g>
</g>
<g>
</g>
<g>
</g>
<g>
</g>
<g>
</g>
<g>
</g>
<g>
</g>
<g>
</g>
<g>
</g>
<g>
</g>
<g>
</g>
<g>
</g>
<g>
</g>
<g>
</g>
</svg>
