<?xml version="1.0" encoding="iso-8859-1"?>
<!-- Generator: Adobe Illustrator 19.0.0, SVG Export Plug-In . SVG Version: 6.00 Build 0)  -->
<svg version="1.1" id="Layer_1" xmlns="http://www.w3.org/2000/svg" xmlns:xlink="http://www.w3.org/1999/xlink" x="0px" y="0px"
	 viewBox="0 0 512 512" style="enable-background:new 0 0 512 512;" xml:space="preserve">
<path style="fill:#1D1D1B;" d="M408.102,136.092h-16.011v15.666h16.011c13.337,0,24.188,10.85,24.188,24.189v144.097
	c0,13.337-10.852,24.188-24.188,24.188h-48.033v15.666h48.033c21.976,0,39.854-17.878,39.854-39.854V175.946
	C447.956,153.97,430.078,136.092,408.102,136.092z"/>
<rect x="119.91" y="215.975" style="fill:#FBB049;" width="224.153" height="184.12"/>
<g>
	<rect x="159.932" y="215.975" style="fill:#FA9C1C;" width="48.032" height="184.12"/>
	<rect x="255.997" y="215.975" style="fill:#FA9C1C;" width="48.033" height="184.12"/>
</g>
<g>
	<rect x="119.91" y="175.943" style="fill:#7B7B53;" width="224.153" height="40.033"/>
	<rect x="119.91" y="400.096" style="fill:#7B7B53;" width="224.153" height="40.033"/>
</g>
<g>
	<rect x="95.888" y="103.899" style="fill:#5A5A28;" width="272.186" height="72.048"/>
	<rect x="95.888" y="440.118" style="fill:#5A5A28;" width="272.186" height="64.044"/>
</g>
<path style="fill:#FFFFFF;" d="M312.038,23.844c-5.168,0-10.15,0.756-14.901,2.066c-10.238-11.09-24.854-18.077-41.138-18.077
	c-18.535,0-34.92,9.038-45.121,22.906c-7.993-4.39-17.165-6.895-26.928-6.895c-7.509,0-14.662,1.503-21.207,4.182
	c-9.568-7.61-21.656-12.187-34.831-12.187c-30.948,0-56.037,25.089-56.037,56.037v60.04c0,15.474,12.545,28.019,28.019,28.019
	s28.019-12.545,28.019-28.019v-4.002c7.509,0,14.662-1.503,21.207-4.182c9.568,7.61,21.656,12.187,34.831,12.187
	c18.535,0,34.92-9.038,45.121-22.906c7.993,4.389,17.165,6.895,26.928,6.895c5.168,0,10.15-0.756,14.901-2.066
	c10.238,11.09,24.854,18.077,41.137,18.077c30.948,0,56.037-25.089,56.037-56.037C368.075,48.933,342.986,23.844,312.038,23.844z"/>
<g>
	<rect x="119.91" y="208.142" style="fill:#1D1D1B;" width="224.153" height="15.666"/>
	<rect x="119.91" y="392.263" style="fill:#1D1D1B;" width="224.153" height="15.666"/>
	<rect x="120.077" y="231.986" style="fill:#1D1D1B;" width="15.666" height="152.099"/>
	<rect x="328.219" y="231.986" style="fill:#1D1D1B;" width="15.666" height="152.099"/>
	<rect x="152.099" y="231.986" style="fill:#1D1D1B;" width="15.666" height="152.099"/>
	<rect x="200.131" y="231.986" style="fill:#1D1D1B;" width="15.666" height="152.099"/>
	<rect x="248.164" y="231.986" style="fill:#1D1D1B;" width="15.666" height="152.099"/>
	<rect x="296.197" y="231.986" style="fill:#1D1D1B;" width="15.666" height="152.099"/>
</g>
<g>
	<rect x="352.241" y="328.052" style="fill:#FBB049;" width="15.666" height="48.033"/>
	<rect x="384.262" y="119.91" style="fill:#FBB049;" width="15.666" height="48.032"/>
</g>
<g>
	<rect x="143.921" y="464.307" style="fill:#1D1D1B;" width="176.12" height="15.666"/>
	<path style="fill:#1D1D1B;" d="M88.059,183.779h23.844c4.509,0,8.177,3.668,8.177,8.178v8.005h15.666v-8.005
		c0-2.871-0.511-5.626-1.444-8.178h195.364c-0.935,2.552-1.445,5.306-1.445,8.178v8.005h15.666v-8.005
		c0-4.509,3.668-8.178,8.177-8.178h23.844V104.07h-4.771c3.067-7.465,4.771-15.63,4.771-24.189c0-35.219-28.653-63.87-63.87-63.87
		c-4.117,0-8.287,0.424-12.445,1.264C287.799,6.245,272.159,0,255.999,0c-17.993,0-35.225,7.753-47.269,21.014
		c-7.811-3.286-16.264-5.003-24.779-5.003c-6.813,0-13.503,1.076-19.946,3.204c-10.657-7.349-23.044-11.21-36.091-11.21
		c-35.219,0-63.87,28.653-63.87,63.87v60.04c0,15.622,10.047,28.935,24.016,33.835v18.028H88.059z M360.242,168.113H103.725v-0.555
		c16.869-1.801,30.28-15.34,31.864-32.273c4.166-0.504,8.266-1.42,12.271-2.744c10.657,7.347,23.044,11.21,36.091,11.21
		c17.993,0,35.225-7.753,47.27-21.013c7.812,3.286,16.263,5.003,24.779,5.003c4.117,0,8.287-0.424,12.445-1.265
		c11.795,11.03,27.434,17.276,43.592,17.276c19.228,0,36.486-8.553,48.204-22.039V168.113z M79.709,131.917V71.876
		c0-26.58,21.625-48.204,48.204-48.204c10.973,0,21.33,3.625,29.955,10.485l3.594,2.858l4.25-1.74
		c5.832-2.388,11.968-3.598,18.239-3.598c8.088,0,16.096,2.05,23.157,5.928l6.015,3.303l4.066-5.527
		c9.217-12.529,23.364-19.714,38.812-19.714c13.554,0,26.12,5.525,35.382,15.558l3.238,3.506l4.6-1.268
		c4.295-1.184,8.607-1.785,12.818-1.785c26.579,0,48.204,21.625,48.204,48.204s-21.625,48.204-48.204,48.204
		c-13.553,0-26.119-5.525-35.381-15.557l-3.238-3.506l-4.599,1.268c-4.297,1.184-8.61,1.784-12.82,1.784
		c-8.088,0-16.096-2.05-23.157-5.928l-6.015-3.303l-4.066,5.527c-9.216,12.529-23.363,19.714-38.812,19.714
		c-10.973,0-21.331-3.625-29.955-10.485l-3.594-2.858l-4.25,1.74c-5.832,2.388-11.969,3.598-18.239,3.598h-7.833v11.836
		c0,11.13-9.055,20.185-20.185,20.185C88.764,152.103,79.709,143.048,79.709,131.917z"/>
	<path style="fill:#1D1D1B;" d="M343.887,424.113v-8.005h-15.666v8.005c0,2.871,0.511,5.625,1.445,8.178H134.302
		c0.935-2.552,1.444-5.306,1.444-8.178v-8.005H120.08v8.005c0,4.509-3.668,8.178-8.177,8.178H88.059V512h287.849v-79.709h-23.844
		C347.554,432.29,343.887,428.622,343.887,424.113z M360.242,447.956v16.356h-24.188v15.666h24.188v16.355H103.725v-16.355h24.189
		v-15.666h-24.189v-16.356H360.242z"/>
	<path style="fill:#1D1D1B;" d="M111.731,71.876H96.065c0-17.562,14.288-31.85,31.85-31.85v15.666
		C118.991,55.694,111.731,62.952,111.731,71.876z"/>
</g>
<g>
</g>
<g>
</g>
<g>
</g>
<g>
</g>
<g>
</g>
<g>
</g>
<g>
</g>
<g>
</g>
<g>
</g>
<g>
</g>
<g>
</g>
<g>
</g>
<g>
</g>
<g>
</g>
<g>
</g>
</svg>
