<?xml version="1.0" encoding="iso-8859-1"?>
<!-- Generator: Adobe Illustrator 19.0.0, SVG Export Plug-In . SVG Version: 6.00 Build 0)  -->
<svg version="1.1" id="Layer_1" xmlns="http://www.w3.org/2000/svg" xmlns:xlink="http://www.w3.org/1999/xlink" x="0px" y="0px"
	 viewBox="0 0 512.004 512.004" style="enable-background:new 0 0 512.004 512.004;" xml:space="preserve">
<path style="fill:#5A5A28;" d="M90.609,338.775h300.993c45.715,0,82.773-37.059,82.773-82.773s-37.059-82.773-82.773-82.773H90.609"
	/>
<path style="fill:#7B7B53;" d="M474.376,256.002c0-45.715-37.059-82.773-82.773-82.773H90.609v82.773L474.376,256.002
	L474.376,256.002z"/>
<circle style="fill:#FBB049;" cx="90.608" cy="255.997" r="82.772"/>
<path style="fill:#FFFFFF;" d="M286.256,338.775c45.715,0,82.773-37.059,82.773-82.773s-37.059-82.773-82.773-82.773H180.908
	c45.715,0,82.773,37.059,82.773,82.773s-37.059,82.773-82.773,82.773H286.256z"/>
<circle style="fill:#FA9C1C;" cx="105.654" cy="255.997" r="67.723"/>
<g>
	<path style="fill:#FBB049;" d="M353.979,301.151H248.631c0,0-23.235,37.188-45.149,37.625h97.823
		C301.305,338.775,337.306,336.023,353.979,301.151z"/>
	<path style="fill:#FBB049;" d="M369.029,256.002H263.681c-3.238-39.425-15.05-45.149-15.05-45.149h105.348
		C353.979,210.853,370.112,218.198,369.029,256.002z"/>
</g>
<g>
	<rect x="45.147" y="286.099" style="fill:#FFFFFF;" width="15.673" height="15.05"/>
	<rect x="82.772" y="271.053" style="fill:#FFFFFF;" width="15.673" height="15.05"/>
	<rect x="45.147" y="210.85" style="fill:#FFFFFF;" width="15.673" height="15.05"/>
	<rect x="120.396" y="286.099" style="fill:#FFFFFF;" width="15.673" height="15.05"/>
	<rect x="82.772" y="308.678" style="fill:#FFFFFF;" width="15.673" height="15.05"/>
	<rect x="112.874" y="248.474" style="fill:#FFFFFF;" width="15.673" height="15.05"/>
	<rect x="52.67" y="248.474" style="fill:#FFFFFF;" width="15.673" height="15.05"/>
	<rect x="142.975" y="248.474" style="fill:#FFFFFF;" width="15.673" height="15.05"/>
	<rect x="120.396" y="210.85" style="fill:#FFFFFF;" width="15.673" height="15.05"/>
	<rect x="82.772" y="225.906" style="fill:#FFFFFF;" width="15.673" height="15.05"/>
	<rect x="82.772" y="188.281" style="fill:#FFFFFF;" width="15.673" height="15.05"/>
	<rect x="22.576" y="248.474" style="fill:#FFFFFF;" width="15.673" height="15.05"/>
</g>
<path style="fill:#1D1D1B;" d="M489.426,247.797h-7.59c-4.161-46.132-43.037-82.404-90.233-82.404H90.61
	C40.647,165.392,0,206.039,0,256.002s40.647,90.609,90.61,90.609h300.993c47.448,0,86.489-36.66,90.299-83.142h7.524V247.797z
	 M286.256,181.064c20.649,0,39.375,8.395,52.942,21.952h-84.832c-6.192-8.559-13.837-16-22.576-21.952H286.256z M351.201,293.315
	h-87.728c4.14-9.124,6.804-19.052,7.701-29.477h89.607C359.67,274.483,356.307,284.461,351.201,293.315z M271.175,248.166
	c-0.898-10.425-3.562-20.352-7.701-29.476h87.728c5.106,8.853,8.469,18.831,9.58,29.476H271.175z M15.673,256.002
	c0-41.32,33.617-74.937,74.938-74.937c41.32,0,74.937,33.617,74.937,74.937s-33.617,74.937-74.937,74.937
	C49.289,330.939,15.673,297.322,15.673,256.002z M141.491,330.939c23.962-16.321,39.729-43.822,39.729-74.937
	s-15.767-58.615-39.729-74.937h39.417c41.321,0,74.938,33.617,74.938,74.937s-33.617,74.937-74.938,74.937H141.491z
	 M231.789,330.939c8.739-5.952,16.384-13.393,22.576-21.951h84.832c-13.567,13.556-32.292,21.951-52.941,21.951H231.789z
	 M391.604,330.939h-54.467c23.962-16.321,39.73-43.822,39.73-74.937s-15.768-58.615-39.73-74.937h54.467
	c41.32,0,74.937,33.617,74.937,74.937S432.924,330.939,391.604,330.939z"/>
<rect x="496.955" y="248.161" style="fill:#FA9C1C;" width="15.049" height="15.673"/>
<path style="fill:#FFFFFF;" d="M384.079,316.512v-15.673c28.873,0,52.362-23.49,52.362-52.362h15.673
	C452.113,285.992,421.592,316.512,384.079,316.512z"/>
<g>
</g>
<g>
</g>
<g>
</g>
<g>
</g>
<g>
</g>
<g>
</g>
<g>
</g>
<g>
</g>
<g>
</g>
<g>
</g>
<g>
</g>
<g>
</g>
<g>
</g>
<g>
</g>
<g>
</g>
</svg>
