<?xml version="1.0" encoding="iso-8859-1"?>
<!-- Generator: Adobe Illustrator 19.0.0, SVG Export Plug-In . SVG Version: 6.00 Build 0)  -->
<svg version="1.1" id="Layer_1" xmlns="http://www.w3.org/2000/svg" xmlns:xlink="http://www.w3.org/1999/xlink" x="0px" y="0px"
	 viewBox="0 0 512.001 512.001" style="enable-background:new 0 0 512.001 512.001;" xml:space="preserve">
<path style="fill:#FA9C1C;" d="M312.011,226.463h64.003c13.256,0,24.001-10.745,24.001-24.001l0,0
	c0-13.255-10.745-24.001-24.001-24.001h-64.003c-13.255,0-24.001,10.745-24.001,24.001l0,0
	C288.011,215.717,298.756,226.463,312.011,226.463z"/>
<path style="fill:#FBB049;" d="M128.005,310.516c0,16.889-17.481,27.854-32.875,20.906c-27.788-12.541-47.129-40.491-47.129-72.958
	s19.34-60.417,47.129-72.958c15.394-6.947,32.875,4.017,32.875,20.906v2.074c0,9.261-5.758,17.152-14.073,21.23
	c-10.618,5.207-17.928,16.125-17.928,28.749c0,12.624,7.31,23.54,17.928,28.749c8.315,4.078,14.073,11.968,14.073,21.23V310.516z"/>
<g>
	<path style="fill:#FA9C1C;" d="M176.007,458.472h64.003c15.464,0,28.001-12.536,28.001-28l0,0
		c0-15.464-12.536-28.002-28.001-28.002h-64.003c-15.464,0-28.002,12.536-28.002,28.002l0,0
		C148.005,445.935,160.542,458.472,176.007,458.472z"/>
	<path style="fill:#FA9C1C;" d="M104.004,106.459H40.002C26.747,106.459,16,95.714,16,82.458l0,0
		c0-13.255,10.745-24.001,24.001-24.001h64.003c13.255,0,24.001,10.745,24.001,24.001l0,0
		C128.005,95.713,117.259,106.459,104.004,106.459z"/>
</g>
<g>
	<path style="fill:#FBB049;" d="M424.016,190.512c0,16.889,17.481,27.854,32.875,20.906c27.788-12.541,47.129-40.491,47.129-72.958
		s-19.34-60.417-47.129-72.958c-15.394-6.947-32.875,4.017-32.875,20.906v2.074c0,9.261,5.758,17.151,14.073,21.23
		c10.618,5.207,17.928,16.125,17.928,28.749s-7.31,23.54-17.928,28.749c-8.315,4.078-14.073,11.968-14.073,21.229V190.512z"/>
	<path style="fill:#FBB049;" d="M236.009,106.459h-64.003c-13.256,0-24.001-10.745-24.001-24.001l0,0
		c0-13.255,10.745-24.001,24.001-24.001h64.003c13.256,0,24.001,10.745,24.001,24.001l0,0
		C260.009,95.713,249.264,106.459,236.009,106.459z"/>
	<path style="fill:#FBB049;" d="M236.009,226.463h-64.003c-13.256,0-24.001-10.745-24.001-24.001l0,0
		c0-13.255,10.745-24.001,24.001-24.001h64.003c13.256,0,24.001,10.745,24.001,24.001l0,0
		C260.009,215.717,249.264,226.463,236.009,226.463z"/>
	<path style="fill:#FBB049;" d="M380.014,338.467h-72.002c-13.256,0-24.001-10.745-24.001-24.001l0,0
		c0-13.256,10.745-24.001,24.001-24.001h72.002c13.256,0,24.001,10.745,24.001,24.001l0,0
		C404.015,327.721,393.269,338.467,380.014,338.467z"/>
	<path style="fill:#FBB049;" d="M376.014,458.472h-64.003c-15.464,0-28-12.536-28-28l0,0c0-15.464,12.536-28.002,28-28.002h64.003
		c15.464,0,28,12.536,28,28.002l0,0C404.015,445.935,391.479,458.472,376.014,458.472z"/>
	<path style="fill:#FBB049;" d="M96.004,458.472H48.001c-15.464,0-28-12.536-28-28l0,0c0-15.464,12.536-28.002,28-28.002h48.001
		c15.464,0,28.002,12.536,28.002,28.002l0,0C124.004,445.935,111.468,458.472,96.004,458.472z"/>
</g>
<path style="fill:#FA9C1C;" d="M380.014,106.459h-64.003c-13.256,0-24.001-10.745-24.001-24.001l0,0
	c0-13.255,10.745-24.001,24.001-24.001h64.003c13.256,0,24.001,10.745,24.001,24.001l0,0
	C404.015,95.713,393.269,106.459,380.014,106.459z"/>
<path style="fill:#FBB049;" d="M424.016,321.491c0-16.889,17.481-27.854,32.875-20.906c27.788,12.541,47.129,40.491,47.129,72.958
	s-19.34,60.417-47.129,72.958c-15.394,6.947-32.875-4.017-32.875-20.906v-2.074c0-9.261,5.758-17.151,14.073-21.23
	c10.618-5.207,17.928-16.125,17.928-28.749s-7.31-23.54-17.928-28.749c-8.315-4.078-14.073-11.968-14.073-21.23V321.491z"/>
<path style="fill:#FA9C1C;" d="M180.006,338.467h64.003c13.256,0,24.001-10.745,24.001-24.001l0,0
	c0-13.255-10.745-24.001-24.001-24.001h-64.003c-13.255,0-24.001,10.745-24.001,24.001l0,0
	C156.006,327.721,166.751,338.467,180.006,338.467z"/>
<path style="fill:#1D1D1B;" d="M460.174,293.309c-9.801-4.424-21.018-3.601-30.004,2.2c-4.358,2.815-7.845,6.6-10.269,10.975
	h-12.912c-3.554-13.786-16.094-24.001-30.974-24.001h-64.003c-14.881,0-27.419,10.215-30.974,24.001h-10.054
	c-3.554-13.786-16.094-24.001-30.974-24.001h-64.003c-14.881,0-27.419,10.215-30.974,24.001h-9.118
	c-0.732-11.131-7.662-21.138-18.468-26.438c-8.303-4.073-13.46-12.343-13.46-21.582c0-9.239,5.158-17.509,13.46-21.582
	c10.806-5.3,17.735-15.307,18.468-26.438h9.118c3.554,13.786,16.094,24.001,30.974,24.001h64.003
	c14.881,0,27.419-10.215,30.974-24.001h10.054c3.554,13.786,16.094,24.001,30.974,24.001h64.003
	c14.881,0,27.419-10.215,30.974-24.001h16.315c1.95,2.309,4.247,4.357,6.866,6.049c5.156,3.33,11.044,5.019,16.981,5.019
	c4.41,0,8.847-0.932,13.024-2.818c31.484-14.208,51.826-45.702,51.826-80.233c0-34.531-20.342-66.025-51.826-80.233
	c-9.804-4.425-21.02-3.602-30.004,2.2c-5.348,3.454-9.382,8.372-11.747,14.049H406.99c-3.554-13.786-16.094-24.001-30.974-24.001
	h-64.003c-14.881,0-27.419,10.215-30.974,24.001h-10.054c-3.554-13.786-16.094-24.001-30.974-24.001h-64.003
	c-14.881,0-27.419,10.215-30.974,24.001h-10.054c-3.554-13.786-16.094-24.001-30.974-24.001H40.002
	c-14.881,0-27.419,10.215-30.974,24.001H0v15.963h9.027c3.554,13.786,16.094,24.001,30.974,24.001h64.003
	c14.881,0,27.419-10.215,30.974-24.001h10.054c3.554,13.786,16.094,24.001,30.974,24.001h64.003
	c14.881,0,27.419-10.215,30.974-24.001h10.054c3.554,13.786,16.094,24.001,30.974,24.001h64.003
	c14.881,0,27.419-10.215,30.974-24.001h9.121c0.732,11.131,7.661,21.138,18.467,26.438c8.304,4.073,13.461,12.343,13.461,21.582
	c0,9.24-5.158,17.509-13.461,21.582c-11.436,5.608-18.54,16.49-18.54,28.396v2.073c0,1.339,0.087,2.664,0.253,3.969h-9.299
	c-3.554-13.786-16.094-24.001-30.974-24.001h-64.003c-14.881,0-27.419,10.215-30.974,24.001h-10.054
	c-3.554-13.786-16.094-24.001-30.974-24.001h-64.003c-14.881,0-27.419,10.215-30.974,24.001H133.6
	c-2.365-5.676-6.399-10.595-11.748-14.049c-8.982-5.8-20.198-6.626-30.004-2.2c-31.484,14.208-51.826,45.702-51.826,80.233
	s20.342,66.025,51.826,80.233c4.179,1.886,8.615,2.818,13.024,2.818c5.936,0,11.827-1.69,16.981-5.019
	c5.349-3.454,9.383-8.372,11.748-14.049h11.434c3.554,13.786,16.094,24.001,30.974,24.001h64.003
	c14.881,0,27.419-10.215,30.974-24.001h10.054c3.554,13.786,16.094,24.001,30.974,24.001h64.003
	c14.881,0,27.419-10.215,30.974-24.001h9.046v1.116c0,11.906,7.104,22.786,18.54,28.395c8.304,4.073,13.461,12.343,13.461,21.582
	c0,9.241-5.158,17.511-13.461,21.583c-10.806,5.3-17.734,15.307-18.467,26.437h-9.118c-3.554-13.786-16.094-24.001-30.974-24.001
	h-64.003c-14.881,0-27.419,10.215-30.974,24.001h-10.054c-3.554-13.786-16.094-24.001-30.974-24.001h-64.003
	c-14.881,0-27.419,10.215-30.974,24.001H134.98c-3.554-13.786-16.094-24.001-30.974-24.001H40.002
	c-14.881,0-27.419,10.215-30.974,24.001H0v15.963h9.027c3.554,13.786,16.094,24.001,30.974,24.001h64.003
	c14.881,0,27.419-10.215,30.974-24.001h10.054c3.554,13.786,16.094,24.001,30.974,24.001h64.003
	c14.881,0,27.419-10.215,30.974-24.001h10.054c3.554,13.786,16.094,24.001,30.974,24.001h64.003
	c14.881,0,27.419-10.215,30.974-24.001h11.434c2.365,5.675,6.398,10.595,11.747,14.049c5.155,3.33,11.045,5.02,16.982,5.02
	c4.409,0,8.845-0.933,13.023-2.818c31.484-14.209,51.826-45.702,51.826-80.234C512,339.011,491.658,307.516,460.174,293.309z
	 M104.004,98.477H40.002c-8.833,0-16.02-7.187-16.02-16.02s7.187-16.02,16.02-16.02h64.003c8.833,0,16.02,7.187,16.02,16.02
	S112.836,98.477,104.004,98.477z M240.009,98.477h-64.003c-8.833,0-16.02-7.187-16.02-16.02s7.187-16.02,16.02-16.02h64.003
	c8.833,0,16.02,7.187,16.02,16.02S248.842,98.477,240.009,98.477z M376.014,98.477h-64.003c-8.833,0-16.02-7.187-16.02-16.02
	s7.187-16.02,16.02-16.02h64.003c8.833,0,16.02,7.187,16.02,16.02S384.847,98.477,376.014,98.477z M431.998,188.438
	c0-5.769,3.681-11.157,9.606-14.065c13.813-6.775,22.395-20.536,22.395-35.914s-8.581-29.139-22.395-35.914
	c-5.924-2.906-9.606-8.296-9.606-14.065v-2.073c0-5.185,2.49-9.767,6.832-12.572c2.524-1.63,5.413-2.457,8.33-2.457
	c2.181,0,4.377,0.463,6.449,1.397c25.775,11.633,42.429,37.415,42.429,65.683s-16.654,54.05-42.429,65.683
	c-4.845,2.185-10.368,1.788-14.779-1.06c-4.342-2.804-6.832-7.386-6.832-12.572V188.438z M312.011,186.443h64.003
	c8.833,0,16.02,7.187,16.02,16.02c0,8.833-7.187,16.02-16.02,16.02h-64.003c-8.833,0-16.02-7.187-16.02-16.02
	C295.993,193.63,303.179,186.443,312.011,186.443z M176.007,186.443h64.003c8.833,0,16.02,7.187,16.02,16.02
	c0,8.833-7.187,16.02-16.02,16.02h-64.003c-8.833,0-16.02-7.187-16.02-16.02S167.174,186.443,176.007,186.443z M120.023,310.516
	c0,5.185-2.49,9.767-6.832,12.572c-4.412,2.85-9.935,3.244-14.779,1.06c-25.775-11.633-42.429-37.415-42.429-65.683
	c0-28.269,16.654-54.05,42.429-65.683c2.072-0.935,4.269-1.397,6.449-1.397c2.917,0,5.806,0.827,8.33,2.457
	c4.342,2.804,6.832,7.386,6.832,12.572v2.073c0,5.769-3.681,11.157-9.607,14.065c-13.812,6.775-22.394,20.537-22.394,35.914
	s8.581,29.139,22.394,35.914c5.926,2.906,9.607,8.296,9.607,14.064V310.516z M240.009,330.485h-64.003
	c-8.833,0-16.02-7.187-16.02-16.02c0-8.833,7.187-16.02,16.02-16.02h64.003c8.833,0,16.02,7.187,16.02,16.02
	C256.028,323.3,248.842,330.485,240.009,330.485z M376.014,330.485h-64.003c-8.833,0-16.02-7.187-16.02-16.02
	c0-8.833,7.187-16.02,16.02-16.02h64.003c8.833,0,16.02,7.187,16.02,16.02C392.033,323.3,384.847,330.485,376.014,330.485z
	 M104.004,445.563H40.002c-8.833,0-16.02-7.187-16.02-16.02s7.187-16.02,16.02-16.02h64.003c8.833,0,16.02,7.187,16.02,16.02
	S112.836,445.563,104.004,445.563z M240.009,445.563h-64.003c-8.833,0-16.02-7.187-16.02-16.02s7.187-16.02,16.02-16.02h64.003
	c8.833,0,16.02,7.187,16.02,16.02S248.842,445.563,240.009,445.563z M376.014,445.563h-64.003c-8.833,0-16.02-7.187-16.02-16.02
	s7.187-16.02,16.02-16.02h64.003c8.833,0,16.02,7.187,16.02,16.02S384.847,445.563,376.014,445.563z M453.608,439.225
	c-4.842,2.185-10.368,1.789-14.779-1.061c-4.342-2.804-6.832-7.386-6.832-12.572v-2.073c0-5.768,3.681-11.156,9.606-14.064
	c13.813-6.775,22.395-20.537,22.395-35.915c0-15.378-8.581-29.139-22.395-35.914c-5.924-2.906-9.606-8.296-9.606-14.064v-2.074
	c0-5.185,2.49-9.766,6.832-12.572c2.524-1.629,5.414-2.457,8.33-2.457c2.181,0,4.377,0.463,6.449,1.397
	c25.775,11.633,42.429,37.415,42.429,65.683C496.037,401.811,479.383,427.592,453.608,439.225z"/>
<g>
</g>
<g>
</g>
<g>
</g>
<g>
</g>
<g>
</g>
<g>
</g>
<g>
</g>
<g>
</g>
<g>
</g>
<g>
</g>
<g>
</g>
<g>
</g>
<g>
</g>
<g>
</g>
<g>
</g>
</svg>
