<?xml version="1.0" encoding="iso-8859-1"?>
<!-- Generator: Adobe Illustrator 19.0.0, SVG Export Plug-In . SVG Version: 6.00 Build 0)  -->
<svg version="1.1" id="Layer_1" xmlns="http://www.w3.org/2000/svg" xmlns:xlink="http://www.w3.org/1999/xlink" x="0px" y="0px"
	 viewBox="0 0 512.001 512.001" style="enable-background:new 0 0 512.001 512.001;" xml:space="preserve">
<circle style="fill:#7B7B53;" cx="256.003" cy="256.003" r="248.141"/>
<g>
	<circle style="fill:#FFFFFF;" cx="183.96" cy="119.925" r="48.027"/>
	<circle style="fill:#FFFFFF;" cx="256.003" cy="256.003" r="151.916"/>
</g>
<path style="fill:#FA9C1C;" d="M288.018,448.107L288.018,448.107c-22.103,0-40.022-17.919-40.022-40.022V103.916
	c0-22.103,17.919-40.022,40.022-40.022l0,0c22.103,0,40.022,17.919,40.022,40.022v304.17
	C328.04,430.189,310.121,448.107,288.018,448.107z"/>
<path style="fill:#FFFFFF;" d="M392.076,392.077L392.076,392.077c-22.103,0-40.022-17.919-40.022-40.022V159.947
	c0-22.103,17.919-40.022,40.022-40.022l0,0c22.103,0,40.023,17.919,40.023,40.022v192.107
	C432.099,374.158,414.18,392.077,392.076,392.077z"/>
<g>
	<circle style="fill:#FA9C1C;" cx="183.96" cy="119.925" r="24.013"/>
	<ellipse style="fill:#FA9C1C;" cx="151.948" cy="260.007" rx="96.057" ry="100.051"/>
</g>
<ellipse style="fill:#FBB049;" cx="151.948" cy="260.007" rx="56.026" ry="58.366"/>
<path style="fill:#1D1D1B;" d="M256.001,512c-68.38,0-132.667-26.629-181.019-74.98C26.629,388.668,0,324.381,0,256
	S26.629,123.333,74.981,74.981c48.352-48.352,112.639-74.98,181.019-74.98s132.667,26.629,181.019,74.98
	c48.352,48.353,74.981,112.64,74.981,181.019s-26.629,132.667-74.981,181.019S324.38,512,256.001,512z M256.001,15.724
	c-64.18,0-124.519,24.993-169.901,70.376C40.716,131.482,15.723,191.821,15.723,256s24.993,124.519,70.375,169.901
	c45.382,45.383,105.721,70.376,169.901,70.376s124.519-24.993,169.901-70.376C471.283,380.519,496.276,320.18,496.276,256
	s-24.992-124.518-70.374-169.9C380.52,40.717,320.181,15.724,256.001,15.724z"/>
<polygon style="fill:#FFFFFF;" points="204.959,216.279 193.841,205.16 148.46,250.542 103.078,205.16 91.961,216.279 
	137.342,261.66 91.961,307.041 103.078,318.16 148.46,272.779 193.841,318.16 204.959,307.041 159.578,261.66 "/>
<g>
	<rect x="272.009" y="368.203" style="fill:#1D1D1B;" width="32.018" height="15.723"/>
	<rect x="272.009" y="320.174" style="fill:#1D1D1B;" width="32.018" height="15.723"/>
	<rect x="272.009" y="272.156" style="fill:#1D1D1B;" width="32.018" height="15.723"/>
	<rect x="272.009" y="224.127" style="fill:#1D1D1B;" width="32.018" height="15.723"/>
	<rect x="272.009" y="176.099" style="fill:#1D1D1B;" width="32.018" height="15.723"/>
	<rect x="272.009" y="128.07" style="fill:#1D1D1B;" width="32.018" height="15.723"/>
	<rect x="376.064" y="344.188" style="fill:#1D1D1B;" width="32.017" height="15.723"/>
	<rect x="376.064" y="296.17" style="fill:#1D1D1B;" width="32.017" height="15.723"/>
	<rect x="376.064" y="248.142" style="fill:#1D1D1B;" width="32.017" height="15.723"/>
	<rect x="376.064" y="200.113" style="fill:#1D1D1B;" width="32.017" height="15.723"/>
	<rect x="376.064" y="152.084" style="fill:#1D1D1B;" width="32.017" height="15.723"/>
	<path style="fill:#1D1D1B;" d="M392.075,112.063c-15.125,0-28.623,7.055-37.405,18.041c-0.158-0.125-0.314-0.253-0.473-0.376
		c-5.797-4.519-11.937-8.645-18.295-12.317v-13.494c0-26.403-21.481-47.884-47.884-47.884c-23.985,0-43.905,17.728-47.353,40.769
		c-1.851,0.177-3.7,0.376-5.541,0.616c-8.858-20.124-28.921-33.381-51.166-33.381c-30.816,0-55.888,25.072-55.888,55.888
		c0,10.886,3.139,21.046,8.544,29.646c-2.934,3.286-5.732,6.701-8.375,10.201c-19.528,3.845-38.159,13.309-53.259,28.409
		c-40.516,40.516-40.516,106.442,0,146.958c17.866,17.866,40.673,27.841,64.063,29.951c1.266,1.356,2.549,2.701,3.857,4.009
		c26.358,26.357,60.851,42.573,97.766,46.109c3.452,23.035,23.369,40.759,47.352,40.759c26.403,0,47.884-21.481,47.884-47.884
		v-13.492c6.533-3.774,12.822-8.026,18.768-12.696c8.782,10.985,22.282,18.042,37.407,18.042c26.403,0,47.884-21.481,47.884-47.884
		V159.947C439.96,133.544,418.478,112.063,392.075,112.063z M239.848,119.924c0-2.414-0.154-4.81-0.458-7.181
		c0.248-0.028,0.496-0.061,0.744-0.089v99.973c-4.766-8.885-10.866-17.117-18.196-24.448c-6.062-6.061-12.7-11.196-19.728-15.443
		C224.089,165.154,239.848,144.351,239.848,119.924z M183.96,79.759c16.989,0,32.211,10.755,37.876,26.76
		c1.519,4.291,2.289,8.801,2.289,13.405c0,22.147-18.018,40.165-40.165,40.165c-22.146,0-40.165-18.018-40.165-40.165
		S161.813,79.759,183.96,79.759z M86.098,199.3c17.195-17.195,39.774-25.79,62.362-25.79c22.581,0,45.17,8.598,62.361,25.79
		c16.658,16.658,25.831,38.804,25.831,62.361c0,23.556-9.173,45.705-25.831,62.361c-34.386,34.386-90.336,34.386-124.723,0
		C51.713,289.636,51.713,233.685,86.098,199.3z M240.134,310.692v88.652c-29.253-3.221-56.731-15.283-78.905-34.627
		c22.207-2.727,43.699-12.567,60.709-29.576C229.269,327.809,235.368,319.577,240.134,310.692z M320.179,408.085
		c0,17.733-14.427,32.161-32.161,32.161s-32.161-14.427-32.161-32.161V103.916c0-17.733,14.427-32.161,32.161-32.161
		s32.161,14.427,32.161,32.161V408.085z M335.902,376.098V135.909c2.952,1.969,5.836,4.04,8.629,6.217
		c0.801,0.625,1.599,1.261,2.391,1.907c-1.761,4.982-2.73,10.335-2.73,15.913v192.107c0,5.578,0.969,10.931,2.73,15.913
		C343.382,370.848,339.701,373.564,335.902,376.098z M424.237,352.054c0,17.733-14.427,32.161-32.161,32.161l0,0
		c-17.733,0-32.161-14.427-32.161-32.161V159.947c0-17.733,14.427-32.161,32.161-32.161c17.734,0,32.161,14.427,32.161,32.161
		V352.054z"/>
	<path style="fill:#1D1D1B;" d="M183.96,151.799c-17.576,0-31.875-14.3-31.875-31.875S166.383,88.05,183.96,88.05
		s31.875,14.3,31.875,31.875C215.834,137.501,201.536,151.799,183.96,151.799z M183.96,103.773c-8.907,0-16.152,7.245-16.152,16.152
		c0,8.907,7.245,16.152,16.152,16.152s16.152-7.245,16.152-16.152S192.866,103.773,183.96,103.773z"/>
</g>
<g>
</g>
<g>
</g>
<g>
</g>
<g>
</g>
<g>
</g>
<g>
</g>
<g>
</g>
<g>
</g>
<g>
</g>
<g>
</g>
<g>
</g>
<g>
</g>
<g>
</g>
<g>
</g>
<g>
</g>
</svg>
