<?xml version="1.0" encoding="iso-8859-1"?>
<!-- Generator: Adobe Illustrator 19.0.0, SVG Export Plug-In . SVG Version: 6.00 Build 0)  -->
<svg version="1.1" id="Layer_1" xmlns="http://www.w3.org/2000/svg" xmlns:xlink="http://www.w3.org/1999/xlink" x="0px" y="0px"
	 viewBox="0 0 512 512" style="enable-background:new 0 0 512 512;" xml:space="preserve">
<path style="fill:#5A5A28;" d="M223.991,472.125c0,17.677,14.331,32.008,32.008,32.008c17.677,0,32.008-14.331,32.008-32.008
	v-152.04h-64.017V472.125z"/>
<rect x="223.989" y="288.077" style="fill:#FFFFFF;" width="64.015" height="32.008"/>
<path style="fill:#7B7B53;" d="M223.991,320.085v152.04c0,17.677,14.331,32.008,32.008,32.008V320.085H223.991z"/>
<path style="fill:#FA9C1C;" d="M288.008,128.034H408.04c26.517,0,48.013-21.496,48.013-48.013s-21.496-48.013-48.013-48.013H288.008
	"/>
<path style="fill:#FBB049;" d="M304.013,128.034c26.516,0,48.013-21.496,48.013-48.013s-21.496-48.013-48.013-48.013H103.959
	c-26.517,0-48.013,21.496-48.013,48.013s21.496,48.013,48.013,48.013H304.013z"/>
<g>
	<polygon style="fill:#1D1D1B;" points="12.121,101.775 3.747,88.458 17.588,79.754 3.503,70.149 12.366,57.153 46.292,80.288 	"/>
	<polygon style="fill:#1D1D1B;" points="499.879,101.775 465.707,80.288 499.634,57.153 508.497,70.149 494.412,79.754 
		508.252,88.458 	"/>
</g>
<g>
	<rect x="119.965" y="48.15" style="fill:#FFFFFF;" width="16.004" height="15.731"/>
	<rect x="151.972" y="48.15" style="fill:#FFFFFF;" width="192.055" height="15.731"/>
	<rect x="248.131" y="464.128" style="fill:#FFFFFF;" width="15.731" height="16.004"/>
	<rect x="248.131" y="432.11" style="fill:#FFFFFF;" width="15.731" height="16.005"/>
	<rect x="248.131" y="400.103" style="fill:#FFFFFF;" width="15.731" height="16.005"/>
</g>
<g>
	<rect x="31.94" y="72.156" style="fill:#5A5A28;" width="24.007" height="15.731"/>
	<rect x="456.053" y="72.156" style="fill:#5A5A28;" width="24.007" height="15.731"/>
</g>
<g>
	<path style="fill:#1D1D1B;" d="M216.127,472.125c0,21.987,17.887,39.875,39.874,39.875s39.874-17.887,39.874-39.875V280.211
		h-79.748L216.127,472.125L216.127,472.125z M256.001,496.269c-13.313,0-24.143-10.83-24.143-24.144V327.95h48.286v144.175
		C280.143,485.438,269.312,496.269,256.001,496.269z M280.143,295.942v16.277h-48.286v-16.277H280.143z"/>
	<path style="fill:#1D1D1B;" d="M408.04,24.143h-96.162V0h-15.731v24.143h-80.294V0h-15.731v24.143h-96.163
		c-30.812,0-55.879,25.067-55.879,55.879s25.067,55.878,55.879,55.878h96.162v0.136c0,28.141,20.914,51.478,48.012,55.315v80.722
		h15.731V191.35c27.099-3.835,48.013-27.173,48.013-55.315v-0.136h96.162c30.811,0,55.879-25.067,55.879-55.878
		S438.852,24.143,408.04,24.143z M296.147,136.036c0,22.137-18.01,40.148-40.148,40.148s-40.147-18.01-40.147-40.148v-0.136h80.294
		V136.036z M408.04,120.168H103.959c-22.137,0-40.148-18.01-40.148-40.147s18.011-40.148,40.148-40.148H408.04
		c22.137,0,40.148,18.01,40.148,40.148S430.178,120.168,408.04,120.168z"/>
</g>
<g>
</g>
<g>
</g>
<g>
</g>
<g>
</g>
<g>
</g>
<g>
</g>
<g>
</g>
<g>
</g>
<g>
</g>
<g>
</g>
<g>
</g>
<g>
</g>
<g>
</g>
<g>
</g>
<g>
</g>
</svg>
