<?xml version="1.0" encoding="iso-8859-1"?>
<!-- Generator: Adobe Illustrator 19.0.0, SVG Export Plug-In . SVG Version: 6.00 Build 0)  -->
<svg version="1.1" id="Layer_1" xmlns="http://www.w3.org/2000/svg" xmlns:xlink="http://www.w3.org/1999/xlink" x="0px" y="0px"
	 viewBox="0 0 512 512" style="enable-background:new 0 0 512 512;" xml:space="preserve">
<g>
	<path style="fill:#FA9C1C;" d="M464.157,127.903c22.108,0,40.03-17.922,40.03-40.03s-17.922-40.03-40.03-40.03H47.843
		c-22.108,0-40.03,17.922-40.03,40.03s17.922,40.03,40.03,40.03H464.157z"/>
	<path style="fill:#FA9C1C;" d="M464.157,352.073c22.108,0,40.03-17.922,40.03-40.03c0-22.108-17.922-40.03-40.03-40.03H47.843
		c-22.108,0-40.03,17.922-40.03,40.03c0,22.108,17.922,40.03,40.03,40.03H464.157z"/>
</g>
<g>
	<path style="fill:#FBB049;" d="M464.157,239.988c22.108,0,40.03-17.922,40.03-40.03s-17.922-40.03-40.03-40.03H47.843
		c-22.108,0-40.03,17.922-40.03,40.03s17.922,40.03,40.03,40.03H464.157z"/>
	<path style="fill:#FBB049;" d="M464.157,464.157c22.108,0,40.03-17.922,40.03-40.03c0-22.108-17.922-40.03-40.03-40.03H47.843
		c-22.108,0-40.03,17.922-40.03,40.03c0,22.108,17.922,40.03,40.03,40.03H464.157z"/>
</g>
<g>
	<path style="fill:#1D1D1B;" d="M464.157,135.716H47.843C21.463,135.716,0,114.253,0,87.873S21.463,40.03,47.843,40.03h416.315
		c26.38,0,47.843,21.463,47.843,47.843S490.538,135.716,464.157,135.716z M47.843,55.655c-17.765,0-32.218,14.453-32.218,32.218
		s14.453,32.218,32.218,32.218h416.315c17.765,0,32.218-14.453,32.218-32.218s-14.453-32.218-32.218-32.218H47.843z"/>
	<path style="fill:#1D1D1B;" d="M464.157,247.8H47.843C21.463,247.8,0,226.339,0,199.957c0-26.38,21.463-47.843,47.843-47.843
		h416.315c26.38,0,47.843,21.462,47.843,47.843C512,226.339,490.538,247.8,464.157,247.8z M47.843,167.74
		c-17.765,0-32.218,14.453-32.218,32.218s14.453,32.218,32.218,32.218h416.315c17.765,0,32.218-14.453,32.218-32.218
		s-14.453-32.218-32.218-32.218H47.843z"/>
	<path style="fill:#1D1D1B;" d="M464.157,359.884H47.843C21.463,359.884,0,338.423,0,312.043C0,285.661,21.463,264.2,47.843,264.2
		h416.315c26.38,0,47.843,21.462,47.843,47.843C512,338.423,490.538,359.884,464.157,359.884z M47.843,279.824
		c-17.765,0-32.218,14.453-32.218,32.219c0,17.766,14.453,32.218,32.218,32.218h416.315c17.765,0,32.218-14.452,32.218-32.218
		c0-17.766-14.453-32.218-32.218-32.218L47.843,279.824L47.843,279.824z"/>
	<path style="fill:#1D1D1B;" d="M464.157,471.97H47.843C21.463,471.97,0,450.507,0,424.127c0-26.381,21.463-47.843,47.843-47.843
		h416.315c26.38,0,47.843,21.461,47.843,47.843C512,450.507,490.538,471.97,464.157,471.97z M47.843,391.909
		c-17.765,0-32.218,14.453-32.218,32.218c0,17.765,14.453,32.218,32.218,32.218h416.315c17.765,0,32.218-14.453,32.218-32.218
		c0-17.765-14.453-32.218-32.218-32.218L47.843,391.909L47.843,391.909z"/>
	<rect x="56.043" y="71.86" style="fill:#1D1D1B;" width="15.625" height="32.025"/>
	<rect x="104.083" y="71.86" style="fill:#1D1D1B;" width="15.625" height="32.025"/>
	<rect x="152.115" y="71.86" style="fill:#1D1D1B;" width="15.625" height="32.025"/>
	<rect x="200.156" y="71.86" style="fill:#1D1D1B;" width="15.625" height="32.025"/>
	<rect x="248.188" y="71.86" style="fill:#1D1D1B;" width="15.625" height="32.025"/>
	<rect x="296.219" y="71.86" style="fill:#1D1D1B;" width="15.625" height="32.025"/>
	<rect x="344.26" y="71.86" style="fill:#1D1D1B;" width="15.625" height="32.025"/>
	<rect x="392.292" y="71.86" style="fill:#1D1D1B;" width="15.625" height="32.025"/>
	<rect x="440.333" y="71.86" style="fill:#1D1D1B;" width="15.625" height="32.025"/>
	<rect x="56.043" y="183.948" style="fill:#1D1D1B;" width="15.625" height="32.024"/>
	<rect x="104.083" y="183.948" style="fill:#1D1D1B;" width="15.625" height="32.024"/>
	<rect x="152.115" y="183.948" style="fill:#1D1D1B;" width="15.625" height="32.024"/>
	<rect x="200.156" y="183.948" style="fill:#1D1D1B;" width="15.625" height="32.024"/>
	<rect x="248.188" y="183.948" style="fill:#1D1D1B;" width="15.625" height="32.024"/>
	<rect x="296.219" y="183.948" style="fill:#1D1D1B;" width="15.625" height="32.024"/>
	<rect x="344.26" y="183.948" style="fill:#1D1D1B;" width="15.625" height="32.024"/>
	<rect x="392.292" y="183.948" style="fill:#1D1D1B;" width="15.625" height="32.024"/>
	<rect x="440.333" y="183.948" style="fill:#1D1D1B;" width="15.625" height="32.024"/>
	<rect x="56.043" y="296.031" style="fill:#1D1D1B;" width="15.625" height="32.024"/>
	<rect x="104.083" y="296.031" style="fill:#1D1D1B;" width="15.625" height="32.024"/>
	<rect x="152.115" y="296.031" style="fill:#1D1D1B;" width="15.625" height="32.024"/>
	<rect x="200.156" y="296.031" style="fill:#1D1D1B;" width="15.625" height="32.024"/>
	<rect x="248.188" y="296.031" style="fill:#1D1D1B;" width="15.625" height="32.024"/>
	<rect x="296.219" y="296.031" style="fill:#1D1D1B;" width="15.625" height="32.024"/>
	<rect x="344.26" y="296.031" style="fill:#1D1D1B;" width="15.625" height="32.024"/>
	<rect x="392.292" y="296.031" style="fill:#1D1D1B;" width="15.625" height="32.024"/>
	<rect x="440.333" y="296.031" style="fill:#1D1D1B;" width="15.625" height="32.024"/>
	<rect x="56.043" y="408.115" style="fill:#1D1D1B;" width="15.625" height="32.024"/>
	<rect x="104.083" y="408.115" style="fill:#1D1D1B;" width="15.625" height="32.024"/>
	<rect x="152.115" y="408.115" style="fill:#1D1D1B;" width="15.625" height="32.024"/>
	<rect x="200.156" y="408.115" style="fill:#1D1D1B;" width="15.625" height="32.024"/>
	<rect x="248.188" y="408.115" style="fill:#1D1D1B;" width="15.625" height="32.024"/>
	<rect x="296.219" y="408.115" style="fill:#1D1D1B;" width="15.625" height="32.024"/>
	<rect x="344.26" y="408.115" style="fill:#1D1D1B;" width="15.625" height="32.024"/>
	<rect x="392.292" y="408.115" style="fill:#1D1D1B;" width="15.625" height="32.024"/>
	<rect x="440.333" y="408.115" style="fill:#1D1D1B;" width="15.625" height="32.024"/>
</g>
<g>
</g>
<g>
</g>
<g>
</g>
<g>
</g>
<g>
</g>
<g>
</g>
<g>
</g>
<g>
</g>
<g>
</g>
<g>
</g>
<g>
</g>
<g>
</g>
<g>
</g>
<g>
</g>
<g>
</g>
</svg>
