<?xml version="1.0" encoding="iso-8859-1"?>
<!-- Generator: Adobe Illustrator 19.0.0, SVG Export Plug-In . SVG Version: 6.00 Build 0)  -->
<svg version="1.1" id="Layer_1" xmlns="http://www.w3.org/2000/svg" xmlns:xlink="http://www.w3.org/1999/xlink" x="0px" y="0px"
	 viewBox="0 0 512 512" style="enable-background:new 0 0 512 512;" xml:space="preserve">
<rect x="39.848" y="191.95" style="fill:#5A5A28;" width="408.29" height="240.175"/>
<polyline style="fill:#7B7B53;" points="39.846,432.125 39.846,191.954 448.137,191.954 "/>
<g>
	<rect x="111.899" y="184.126" style="fill:#1D1D1B;" width="264.189" height="15.647"/>
	<path style="fill:#1D1D1B;" d="M79.874,167.755H31.84C14.284,167.755,0,153.471,0,135.914c0-17.557,14.284-31.84,31.84-31.84h8.005
		c4.515,0,8.188-3.673,8.188-8.188c0-4.515-3.673-8.188-8.188-8.188s-8.188,3.673-8.188,8.188H16.01
		c0-13.143,10.692-23.835,23.835-23.835S63.68,82.743,63.68,95.886s-10.692,23.835-23.835,23.835H31.84
		c-8.928,0-16.193,7.265-16.193,16.193c0,8.929,7.265,16.194,16.193,16.194h48.034V167.755z"/>
	<rect x="88.063" y="135.912" style="fill:#1D1D1B;" width="15.647" height="88.063"/>
</g>
<rect x="79.874" y="216.151" style="fill:#FBB049;" width="32.023" height="15.647"/>
<rect x="384.276" y="135.912" style="fill:#1D1D1B;" width="15.647" height="88.063"/>
<rect x="376.088" y="216.151" style="fill:#FBB049;" width="32.023" height="15.647"/>
<g>
	<rect x="111.899" y="152.112" style="fill:#1D1D1B;" width="264.189" height="15.647"/>
	<polygon style="fill:#1D1D1B;" points="512,304.034 496.353,304.034 496.353,167.755 408.108,167.755 408.108,152.108 512,152.108 
			"/>
</g>
<g>
	<path style="fill:#FFFFFF;" d="M135.914,272.193h-24.016v15.647h24.016c4.515,0,8.188,3.673,8.188,8.188
		c0,4.515-3.673,8.188-8.188,8.188h-8.188v-8.188h-15.647v32.023h15.647v-8.188h8.188c4.515,0,8.188,3.673,8.188,8.188
		s-3.673,8.188-8.188,8.188h-24.016v15.647h24.016c13.143,0,23.835-10.692,23.835-23.835c0-6.158-2.347-11.777-6.193-16.011
		c3.846-4.234,6.193-9.854,6.193-16.011C159.749,282.886,149.057,272.193,135.914,272.193z"/>
	<path style="fill:#FFFFFF;" d="M375.903,296.028c0-13.143-10.692-23.835-23.835-23.835h-24.017v15.647h24.017
		c4.515,0,8.188,3.673,8.188,8.188c0,4.515-3.673,8.188-8.188,8.188h-8.188v-8.188h-15.647v8.188h-0.183v15.647h0.183v32.205h15.647
		v-32.205h4.947l11.429,11.429v20.776h15.647v-27.258l-9.645-9.645C372.107,310.818,375.903,303.858,375.903,296.028z"/>
	<polygon style="fill:#FFFFFF;" points="184.131,351.886 231.983,351.886 231.983,336.239 199.778,336.239 199.778,319.863 
		223.977,319.863 223.977,304.216 199.778,304.216 199.778,287.841 231.983,287.841 231.983,272.193 184.131,272.193 	"/>
	<polygon style="fill:#FFFFFF;" points="256.181,351.886 304.035,351.886 304.035,336.239 271.83,336.239 271.83,319.863 
		296.029,319.863 296.029,304.216 271.83,304.216 271.83,287.841 304.035,287.841 304.035,272.193 256.181,272.193 	"/>
</g>
<g>
	<rect x="79.874" y="304.214" style="fill:#1D1D1B;" width="16.011" height="15.647"/>
	<polygon style="fill:#1D1D1B;" points="408.108,184.13 408.108,199.778 440.312,199.778 440.312,304.216 424.12,304.216 
		424.12,319.863 440.312,319.863 440.312,424.302 47.67,424.302 47.67,319.863 63.864,319.863 63.864,304.216 47.67,304.216 
		47.67,199.778 79.876,199.778 79.876,184.13 32.023,184.13 32.023,439.949 455.96,439.949 455.96,184.13 	"/>
	<rect x="392.1" y="304.214" style="fill:#1D1D1B;" width="16.012" height="15.647"/>
	<rect x="191.95" y="376.264" style="fill:#1D1D1B;" width="104.075" height="15.647"/>
</g>
<g>
	<rect x="472.339" y="255.999" style="fill:#FBB049;" width="15.647" height="16.011"/>
	<rect x="472.339" y="223.975" style="fill:#FBB049;" width="15.647" height="16.011"/>
	<rect x="472.339" y="191.95" style="fill:#FBB049;" width="15.647" height="16.011"/>
</g>
<g>
</g>
<g>
</g>
<g>
</g>
<g>
</g>
<g>
</g>
<g>
</g>
<g>
</g>
<g>
</g>
<g>
</g>
<g>
</g>
<g>
</g>
<g>
</g>
<g>
</g>
<g>
</g>
<g>
</g>
</svg>
