<?xml version="1.0" encoding="iso-8859-1"?>
<!-- Generator: Adobe Illustrator 19.0.0, SVG Export Plug-In . SVG Version: 6.00 Build 0)  -->
<svg version="1.1" id="Layer_1" xmlns="http://www.w3.org/2000/svg" xmlns:xlink="http://www.w3.org/1999/xlink" x="0px" y="0px"
	 viewBox="0 0 512.001 512.001" style="enable-background:new 0 0 512.001 512.001;" xml:space="preserve">
<rect x="231.231" y="7.822" style="fill:#5A5A28;" width="49.517" height="80.063"/>
<rect x="231.231" y="7.822" style="fill:#7B7B53;" width="24.761" height="80.063"/>
<path style="fill:#5A5A28;" d="M312.003,360.075c0-20.913,13.365-38.705,32.02-45.3l0.003-10.74
	c0-43.159-31.048-79.067-72.027-86.607l-32.023-0.009c-41.004,7.519-72.077,43.439-72.077,86.616l0.052,10.74
	c18.655,6.594,32.02,24.387,32.02,45.3c0,20.933-13.39,38.738-32.072,45.318v10.722c0,48.636,39.427,88.063,88.063,88.063
	c48.636,0,88.063-39.428,88.063-88.063l0.049-10.722C325.392,398.813,312.003,381.008,312.003,360.075z M255.986,400.104
	c-17.687,0-32.023-14.338-32.023-32.023c0-17.687,14.337-32.023,32.023-32.023s32.023,14.337,32.023,32.023
	C288.01,385.766,273.673,400.104,255.986,400.104z"/>
<path style="fill:#7B7B53;" d="M223.964,368.081c0-17.682,14.332-32.016,32.013-32.022l0.01-120.088l-16.011,1.448
	c-41.004,7.519-72.077,43.439-72.077,86.616l0.052,10.74c18.655,6.594,32.02,24.387,32.02,45.3c0,20.933-13.39,38.738-32.072,45.318
	v10.722c0,48.636,39.427,88.063,88.063,88.063l0.008-104.076C238.293,400.094,223.964,385.761,223.964,368.081z"/>
<rect x="239.971" y="87.875" style="fill:#FBB049;" width="32.023" height="248.179"/>
<circle style="fill:#FFFFFF;" cx="255.99" cy="368.081" r="32.023"/>
<path style="fill:#1D1D1B;" d="M346.674,398.015c-16.059-5.657-26.848-20.903-26.848-37.941c0-17.016,10.772-32.258,26.806-37.925
	l5.212-1.844l0.005-16.272c0-44.072-29.925-82.118-72.029-92.87V95.702h8.75V0h-65.165v95.702h8.75v115.451
	c-42.132,10.735-72.077,48.787-72.077,92.92l0.078,16.243l5.188,1.834c16.034,5.668,26.806,20.909,26.806,37.925
	c0,17.038-10.79,32.284-26.848,37.941l-5.224,1.841v16.26c0,52.871,43.014,95.884,95.885,95.884s95.885-43.013,95.885-95.849
	l0.074-16.287L346.674,398.015z M255.986,343.879c13.345,0,24.202,10.857,24.202,24.202c0,13.344-10.857,24.2-24.202,24.2
	c-13.345,0-24.202-10.857-24.202-24.2C231.785,354.737,242.643,343.879,255.986,343.879z M239.048,15.643h33.879v64.415h-33.878
	V15.643H239.048z M264.176,95.702v233.385c-2.644-0.555-5.382-0.85-8.19-0.85c-2.807,0-5.545,0.295-8.189,0.85V95.702H264.176z
	 M336.204,416.116c0,44.245-35.997,80.241-80.242,80.241c-44.246,0-80.242-35.997-80.242-80.241v-5.488
	c19.394-9.127,32.072-28.788,32.072-50.553c0-21.748-12.67-41.406-32.046-50.541l-0.026-5.499c0-35.54,23.235-66.386,56.433-76.642
	v108.775c-9.715,7.273-16.013,18.871-16.013,31.913c0,21.97,17.874,39.844,39.845,39.844s39.845-17.874,39.845-39.844
	c0-13.041-6.298-24.64-16.013-31.913v-108.76c33.172,10.272,56.385,41.111,56.385,76.624l-0.002,5.513
	c-19.361,9.14-32.021,28.791-32.021,50.53c0,21.754,12.67,41.408,32.048,50.542L336.204,416.116z"/>
<rect x="215.963" y="424.304" style="fill:#FFFFFF;" width="80.053" height="15.643"/>
<g>
	<rect x="296.016" y="8.005" style="fill:#FA9C1C;" width="16.013" height="15.643"/>
	<rect x="296.016" y="40.026" style="fill:#FA9C1C;" width="16.013" height="15.643"/>
	<rect x="296.016" y="72.054" style="fill:#FA9C1C;" width="16.013" height="15.643"/>
	<rect x="199.944" y="8.005" style="fill:#FA9C1C;" width="16.013" height="15.643"/>
	<rect x="199.944" y="40.026" style="fill:#FA9C1C;" width="16.013" height="15.643"/>
	<rect x="199.944" y="72.054" style="fill:#FA9C1C;" width="16.013" height="15.643"/>
</g>
<rect x="239.971" y="456.331" style="fill:#FFFFFF;" width="32.022" height="15.643"/>
<g>
</g>
<g>
</g>
<g>
</g>
<g>
</g>
<g>
</g>
<g>
</g>
<g>
</g>
<g>
</g>
<g>
</g>
<g>
</g>
<g>
</g>
<g>
</g>
<g>
</g>
<g>
</g>
<g>
</g>
</svg>
