<?xml version="1.0" encoding="iso-8859-1"?>
<!-- Generator: Adobe Illustrator 19.0.0, SVG Export Plug-In . SVG Version: 6.00 Build 0)  -->
<svg version="1.1" id="Layer_1" xmlns="http://www.w3.org/2000/svg" xmlns:xlink="http://www.w3.org/1999/xlink" x="0px" y="0px"
	 viewBox="0 0 512 512" style="enable-background:new 0 0 512 512;" xml:space="preserve">
<path style="fill:#FA9C1C;" d="M288.143,78.067c0,17.752-14.391,32.143-32.143,32.143c-17.752,0-32.143-14.391-32.143-32.143
	S256,13.781,256,13.781S288.143,60.315,288.143,78.067z"/>
<path style="fill:#FBB049;" d="M256,110.21c-17.752,0-32.143-14.391-32.143-32.143S256,13.781,256,13.781"/>
<path style="fill:#FA9C1C;" d="M312.251,383.428c0,31.066-25.185,56.251-56.251,56.251s-56.251-25.185-56.251-56.251v-56.251
	L256,375.392l56.251-48.215V383.428z"/>
<path style="fill:#FBB049;" d="M256,439.677c-31.066,0-56.251-25.185-56.251-56.251v-56.251L256,375.391"/>
<path style="fill:#FA9C1C;" d="M312.251,270.926c0,31.066-25.185,56.251-56.251,56.251s-56.251-25.185-56.251-56.251v-56.251
	L256,262.89l56.251-48.215V270.926z"/>
<path style="fill:#FBB049;" d="M256,327.177c-31.066,0-56.251-25.185-56.251-56.251v-56.251L256,262.89"/>
<path style="fill:#FA9C1C;" d="M312.251,158.425c0,31.066-25.185,56.251-56.251,56.251s-56.251-25.185-56.251-56.251v-56.25
	L256,150.39l56.251-48.215V158.425z"/>
<path style="fill:#FBB049;" d="M256,214.676c-31.066,0-56.251-25.185-56.251-56.251v-56.25L256,150.39"/>
<g>
	<path style="fill:#1D1D1B;" d="M256,365.076l-64.083-54.928v73.279c0,32.683,24.599,59.709,56.251,63.587V512h15.665v-64.985
		c31.652-3.878,56.251-30.904,56.251-63.587v-73.279L256,365.076z M304.418,383.428c0,24.031-17.601,44.02-40.586,47.775v-23.668
		h-15.665v23.668c-22.985-3.756-40.586-23.744-40.586-47.775v-39.221L256,385.707l48.418-41.501V383.428z"/>
	<path style="fill:#1D1D1B;" d="M256,252.575l-64.083-54.929v73.279c0,35.335,28.748,64.083,64.083,64.083
		s64.083-28.748,64.083-64.083v-73.279L256,252.575z M304.418,270.926c0,24.031-17.601,44.02-40.586,47.776v-23.668h-15.665v23.668
		c-22.985-3.755-40.586-23.744-40.586-47.776v-39.221L256,273.207l48.418-41.502V270.926z"/>
	<path style="fill:#1D1D1B;" d="M256,140.073l-64.083-54.929v73.279c0,35.335,28.748,64.083,64.083,64.083
		s64.083-28.748,64.083-64.083V85.145L256,140.073z M304.418,158.425c0,24.031-17.601,44.02-40.586,47.775v-23.668h-15.665V206.2
		c-22.985-3.755-40.586-23.744-40.586-47.775v-39.221L256,160.705l48.418-41.501V158.425z"/>
	<path style="fill:#1D1D1B;" d="M256,118.043c22.042,0,39.975-17.933,39.975-39.975c0-19.221-27.932-60.632-33.531-68.738L256,0
		l-6.444,9.33c-5.6,8.106-33.531,49.517-33.531,68.738C216.025,100.11,233.958,118.043,256,118.043z M256,27.935
		c11.627,18.14,24.31,41.273,24.31,50.132c0,10.666-6.906,19.742-16.478,23.009V78.067h-15.665v23.009
		c-9.573-3.268-16.478-12.344-16.478-23.009C231.689,69.208,244.373,46.075,256,27.935z"/>
</g>
<g>
</g>
<g>
</g>
<g>
</g>
<g>
</g>
<g>
</g>
<g>
</g>
<g>
</g>
<g>
</g>
<g>
</g>
<g>
</g>
<g>
</g>
<g>
</g>
<g>
</g>
<g>
</g>
<g>
</g>
</svg>
